{"glyphs":{"0":{"ha":708,"x_min":83,"x_max":625,"o":"m 417 1000 q 498 983 460 1000 q 564 939 536 967 q 608 873 592 911 q 625 792 625 835 l 625 208 q 608 127 625 165 q 564 61 592 89 q 498 17 536 33 q 417 0 460 0 l 292 0 q 210 17 249 0 q 144 61 172 33 q 100 127 117 89 q 83 208 83 165 l 83 792 q 100 873 83 835 q 144 939 117 911 q 210 983 172 967 q 292 1000 249 1000 l 417 1000 m 208 443 l 500 735 l 500 792 q 476 851 500 826 q 417 875 451 875 l 292 875 q 233 851 257 875 q 208 792 208 826 l 208 443 m 500 557 l 208 265 l 208 208 q 233 149 208 174 q 292 125 257 125 l 417 125 q 476 149 451 125 q 500 208 500 174 l 500 557 z "},"1":{"ha":483,"x_min":50,"x_max":383,"o":"m 383 1000 l 383 0 l 258 0 l 258 875 l 50 875 l 50 1000 l 383 1000 z "},"2":{"ha":675,"x_min":67,"x_max":608,"o":"m 608 694 q 567 569 608 626 l 229 125 l 608 125 l 608 0 l 67 0 l 67 125 l 467 647 q 483 699 483 671 l 483 792 q 459 851 483 826 q 400 875 435 875 l 275 875 q 216 851 240 875 q 192 792 192 826 l 192 708 l 67 708 l 67 792 q 83 873 67 835 q 128 939 100 911 q 194 983 156 967 q 275 1000 232 1000 l 400 1000 q 481 983 443 1000 q 547 939 519 967 q 592 873 575 911 q 608 792 608 835 l 608 694 z "},"3":{"ha":692,"x_min":67,"x_max":608,"o":"m 608 667 q 585 572 608 615 q 525 500 563 528 q 585 428 563 472 q 608 333 608 385 l 608 208 q 592 127 608 165 q 547 61 575 89 q 481 17 519 33 q 400 0 443 0 l 275 0 q 194 17 232 0 q 128 61 156 33 q 83 127 100 89 q 67 208 67 165 l 67 292 l 192 292 l 192 208 q 216 149 192 174 q 275 125 240 125 l 400 125 q 459 149 435 125 q 483 208 483 174 l 483 354 q 459 413 483 389 q 400 438 435 438 l 233 438 l 233 563 l 400 563 q 459 587 435 563 q 483 646 483 611 l 483 792 q 459 851 483 826 q 400 875 435 875 l 275 875 q 216 851 240 875 q 192 792 192 826 l 192 708 l 67 708 l 67 792 q 83 873 67 835 q 128 939 100 911 q 194 983 156 967 q 275 1000 232 1000 l 400 1000 q 481 983 443 1000 q 547 939 519 967 q 592 873 575 911 q 608 792 608 835 l 608 667 z "},"4":{"ha":767,"x_min":50,"x_max":717,"o":"m 717 375 l 717 250 l 592 250 l 592 0 l 467 0 l 467 250 l 50 250 l 50 375 l 467 1000 l 592 1000 l 592 375 l 717 375 m 467 375 l 467 775 l 200 375 l 467 375 z "},"5":{"ha":692,"x_min":83,"x_max":625,"o":"m 208 875 l 208 604 l 417 604 q 498 588 460 604 q 564 543 536 571 q 608 477 592 515 q 625 396 625 439 l 625 208 q 608 127 625 165 q 564 61 592 89 q 498 17 536 33 q 417 0 460 0 l 292 0 q 210 17 249 0 q 144 61 172 33 q 100 127 117 89 q 83 208 83 165 l 83 292 l 208 292 l 208 208 q 233 149 208 174 q 292 125 257 125 l 417 125 q 476 149 451 125 q 500 208 500 174 l 500 396 q 476 455 500 431 q 417 479 451 479 l 83 479 l 83 1000 l 625 1000 l 625 875 l 208 875 z "},"6":{"ha":708,"x_min":83,"x_max":625,"o":"m 500 708 l 500 792 q 476 851 500 826 q 417 875 451 875 l 292 875 q 233 851 257 875 q 208 792 208 826 l 208 563 l 417 563 q 498 546 460 563 q 564 501 536 529 q 608 435 592 474 q 625 354 625 397 l 625 208 q 608 127 625 165 q 564 61 592 89 q 498 17 536 33 q 417 0 460 0 l 292 0 q 210 17 249 0 q 144 61 172 33 q 100 127 117 89 q 83 208 83 165 l 83 792 q 100 873 83 835 q 144 939 117 911 q 210 983 172 967 q 292 1000 249 1000 l 417 1000 q 498 983 460 1000 q 564 939 536 967 q 608 873 592 911 q 625 792 625 835 l 625 708 l 500 708 m 208 438 l 208 208 q 233 149 208 174 q 292 125 257 125 l 417 125 q 476 149 451 125 q 500 208 500 174 l 500 354 q 476 413 500 389 q 417 438 451 438 l 208 438 z "},"7":{"ha":642,"x_min":50,"x_max":592,"o":"m 592 1000 l 592 875 l 247 0 l 113 0 l 457 875 l 50 875 l 50 1000 l 592 1000 z "},"8":{"ha":708,"x_min":83,"x_max":625,"o":"m 625 667 q 602 572 625 615 q 542 500 579 528 q 602 428 579 472 q 625 333 625 385 l 625 208 q 608 127 625 165 q 564 61 592 89 q 498 17 536 33 q 417 0 460 0 l 292 0 q 210 17 249 0 q 144 61 172 33 q 100 127 117 89 q 83 208 83 165 l 83 333 q 106 428 83 385 q 167 500 129 472 q 106 572 129 528 q 83 667 83 615 l 83 792 q 100 873 83 835 q 144 939 117 911 q 210 983 172 967 q 292 1000 249 1000 l 417 1000 q 498 983 460 1000 q 564 939 536 967 q 608 873 592 911 q 625 792 625 835 l 625 667 m 500 354 q 476 413 500 389 q 417 438 451 438 l 292 438 q 233 413 257 438 q 208 354 208 389 l 208 208 q 233 149 208 174 q 292 125 257 125 l 417 125 q 476 149 451 125 q 500 208 500 174 l 500 354 m 500 792 q 476 851 500 826 q 417 875 451 875 l 292 875 q 233 851 257 875 q 208 792 208 826 l 208 646 q 233 587 208 611 q 292 563 257 563 l 417 563 q 476 587 451 563 q 500 646 500 611 l 500 792 z "},"9":{"ha":708,"x_min":83,"x_max":625,"o":"m 208 292 l 208 208 q 233 149 208 174 q 292 125 257 125 l 417 125 q 476 149 451 125 q 500 208 500 174 l 500 438 l 292 438 q 210 454 249 438 q 144 499 172 471 q 100 565 117 526 q 83 646 83 603 l 83 792 q 100 873 83 835 q 144 939 117 911 q 210 983 172 967 q 292 1000 249 1000 l 417 1000 q 498 983 460 1000 q 564 939 536 967 q 608 873 592 911 q 625 792 625 835 l 625 208 q 608 127 625 165 q 564 61 592 89 q 498 17 536 33 q 417 0 460 0 l 292 0 q 210 17 249 0 q 144 61 172 33 q 100 127 117 89 q 83 208 83 165 l 83 292 l 208 292 m 500 563 l 500 792 q 476 851 500 826 q 417 875 451 875 l 292 875 q 233 851 257 875 q 208 792 208 826 l 208 646 q 233 587 208 611 q 292 563 257 563 l 500 563 z "},"\u0000":{"ha":0,"x_min":0,"x_max":0,"o":""}," ":{"ha":250,"x_min":0,"x_max":0,"o":""},"\n":{"ha":0,"x_min":0,"x_max":0,"o":""},"!":{"ha":325,"x_min":100,"x_max":225,"o":"m 100 250 l 100 1000 l 225 1000 l 225 250 l 100 250 m 100 0 l 100 146 l 225 146 l 225 0 l 100 0 z "},"\"":{"ha":492,"x_min":100,"x_max":392,"o":"m 100 708 l 100 1000 l 204 1000 l 204 708 l 100 708 m 288 708 l 288 1000 l 392 1000 l 392 708 l 288 708 z "},"#":{"ha":1008,"x_min":67,"x_max":942,"o":"m 782 625 l 729 375 l 858 375 l 858 250 l 704 250 l 653 0 l 525 0 l 576 250 l 329 250 l 278 0 l 150 0 l 201 250 l 67 250 l 67 375 l 228 375 l 279 625 l 150 625 l 150 750 l 304 750 l 356 1000 l 483 1000 l 432 750 l 679 750 l 731 1000 l 858 1000 l 807 750 l 942 750 l 942 625 l 782 625 m 654 625 l 407 625 l 354 375 l 603 375 l 654 625 z "},"$":{"ha":708,"x_min":83,"x_max":625,"o":"m 500 708 l 500 792 q 476 851 500 826 q 417 875 451 875 l 292 875 q 233 851 257 875 q 208 792 208 826 l 208 707 q 249 636 208 661 l 524 471 q 598 395 571 443 q 625 292 625 347 l 625 208 q 608 127 625 165 q 564 61 592 89 q 498 17 536 33 q 417 0 460 0 l 406 0 l 406 -167 l 301 -167 l 301 0 l 292 0 q 210 17 249 0 q 144 61 172 33 q 100 127 117 89 q 83 208 83 165 l 83 292 l 208 292 l 208 208 q 233 149 208 174 q 292 125 257 125 l 417 125 q 476 149 451 125 q 500 208 500 174 l 500 292 q 460 364 500 339 l 185 529 q 110 605 138 557 q 83 707 83 653 l 83 792 q 100 873 83 835 q 144 939 117 911 q 210 983 172 967 q 292 1000 249 1000 l 303 1000 l 303 1167 l 407 1167 l 407 1000 l 417 1000 q 498 983 460 1000 q 564 939 536 967 q 608 873 592 911 q 625 792 625 835 l 625 708 l 500 708 z "},"%":{"ha":1058,"x_min":50,"x_max":1008,"o":"m 467 708 q 450 627 467 665 q 406 561 433 589 q 340 517 378 533 q 258 500 301 500 q 177 517 215 500 q 111 561 139 533 q 67 627 83 589 q 50 708 50 665 l 50 792 q 67 873 50 835 q 111 939 83 911 q 177 983 139 967 q 258 1000 215 1000 q 340 983 301 1000 q 406 939 378 967 q 450 873 433 911 q 467 792 467 835 l 467 708 m 154 708 q 185 635 154 665 q 258 604 215 604 q 332 635 301 604 q 363 708 363 665 l 363 792 q 332 865 363 835 q 258 896 301 896 q 185 865 215 896 q 154 792 154 835 l 154 708 m 842 1000 l 335 0 l 217 0 l 724 1000 l 842 1000 m 800 500 q 881 483 843 500 q 947 439 919 467 q 992 373 975 411 q 1008 292 1008 335 l 1008 208 q 992 127 1008 165 q 947 61 975 89 q 881 17 919 33 q 800 0 843 0 q 719 17 757 0 q 653 61 681 33 q 608 127 625 89 q 592 208 592 165 l 592 292 q 608 373 592 335 q 653 439 625 411 q 719 483 681 467 q 800 500 757 500 m 904 292 q 874 365 904 335 q 800 396 843 396 q 726 365 757 396 q 696 292 696 335 l 696 208 q 726 135 696 165 q 800 104 757 104 q 874 135 843 104 q 904 208 904 165 l 904 292 z "},"&":{"ha":800,"x_min":83,"x_max":750,"o":"m 750 563 l 750 438 l 625 438 l 625 208 q 608 127 625 165 q 564 61 592 89 q 498 17 536 33 q 417 0 460 0 l 292 0 q 210 17 249 0 q 144 61 172 33 q 100 127 117 89 q 83 208 83 165 l 83 333 q 106 428 83 385 q 167 500 129 472 q 106 572 129 528 q 83 667 83 615 l 83 792 q 100 873 83 835 q 144 939 117 911 q 210 983 172 967 q 292 1000 249 1000 l 417 1000 q 498 983 460 1000 q 564 939 536 967 q 608 873 592 911 q 625 792 625 835 l 625 708 l 500 708 l 500 792 q 476 851 500 826 q 417 875 451 875 l 292 875 q 233 851 257 875 q 208 792 208 826 l 208 646 q 233 587 208 611 q 292 563 257 563 l 750 563 m 500 438 l 292 438 q 233 413 257 438 q 208 354 208 389 l 208 208 q 233 149 208 174 q 292 125 257 125 l 417 125 q 476 149 451 125 q 500 208 500 174 l 500 438 z "},"'":{"ha":304,"x_min":100,"x_max":204,"o":"m 100 708 l 100 1000 l 204 1000 l 204 708 l 100 708 z "},"(":{"ha":400,"x_min":100,"x_max":350,"o":"m 308 1000 q 249 976 274 1000 q 225 917 225 951 l 225 83 q 249 24 225 49 q 308 0 274 0 l 350 0 l 350 -125 l 308 -125 q 227 -108 265 -125 q 161 -64 189 -92 q 117 2 133 -36 q 100 83 100 40 l 100 917 q 117 998 100 960 q 161 1064 133 1036 q 227 1108 189 1092 q 308 1125 265 1125 l 350 1125 l 350 1000 l 308 1000 z "},")":{"ha":400,"x_min":50,"x_max":300,"o":"m 92 1125 q 173 1108 135 1125 q 239 1064 211 1092 q 283 998 267 1036 q 300 917 300 960 l 300 83 q 283 2 300 40 q 239 -64 267 -36 q 173 -108 211 -92 q 92 -125 135 -125 l 50 -125 l 50 0 l 92 0 q 151 24 126 0 q 175 83 175 49 l 175 917 q 151 976 175 951 q 92 1000 126 1000 l 50 1000 l 50 1125 l 92 1125 z "},"*":{"ha":600,"x_min":50,"x_max":550,"o":"m 404 750 l 550 665 l 499 575 l 353 660 l 353 500 l 249 500 l 249 660 l 103 575 l 50 665 l 196 750 l 50 835 l 103 925 l 249 840 l 249 1000 l 353 1000 l 353 840 l 499 925 l 550 835 l 404 750 z "},"+":{"ha":867,"x_min":100,"x_max":767,"o":"m 767 469 l 767 365 l 486 365 l 486 83 l 382 83 l 382 365 l 100 365 l 100 469 l 382 469 l 382 750 l 486 750 l 486 469 l 767 469 z "},",":{"ha":325,"x_min":100,"x_max":225,"o":"m 225 146 l 225 -42 q 194 -115 225 -85 q 121 -146 164 -146 l 100 -146 l 100 -83 l 121 -83 q 151 -72 139 -83 q 163 -42 163 -60 l 163 0 l 100 0 l 100 146 l 225 146 z "},"-":{"ha":575,"x_min":100,"x_max":475,"o":"m 100 365 l 100 469 l 475 469 l 475 365 l 100 365 z "},".":{"ha":325,"x_min":100,"x_max":225,"o":"m 100 0 l 100 146 l 225 146 l 225 0 l 100 0 z "},"/":{"ha":600,"x_min":50,"x_max":550,"o":"m 550 1000 l 183 0 l 50 0 l 417 1000 l 550 1000 z "},":":{"ha":325,"x_min":100,"x_max":225,"o":"m 100 354 l 100 500 l 225 500 l 225 354 l 100 354 m 100 0 l 100 146 l 225 146 l 225 0 l 100 0 z "},";":{"ha":325,"x_min":100,"x_max":225,"o":"m 100 354 l 100 500 l 225 500 l 225 354 l 100 354 m 100 146 l 225 146 l 225 -42 q 194 -115 225 -85 q 121 -146 164 -146 l 100 -146 l 100 -83 l 121 -83 q 151 -72 139 -83 q 163 -42 163 -60 l 163 0 l 100 0 l 100 146 z "},"<":{"ha":683,"x_min":83,"x_max":583,"o":"m 583 697 l 215 521 l 583 344 l 583 229 l 83 469 l 83 574 l 583 813 l 583 697 z "},"=":{"ha":867,"x_min":100,"x_max":767,"o":"m 100 500 l 100 604 l 767 604 l 767 500 l 100 500 m 100 229 l 100 333 l 767 333 l 767 229 l 100 229 z "},">":{"ha":683,"x_min":100,"x_max":600,"o":"m 600 574 l 600 469 l 100 229 l 100 344 l 468 521 l 100 697 l 100 813 l 600 574 z "},"?":{"ha":642,"x_min":50,"x_max":592,"o":"m 383 1000 q 465 983 426 1000 q 531 939 503 967 q 575 873 558 911 q 592 792 592 835 l 592 678 q 543 544 592 601 l 403 375 q 383 322 383 353 l 383 250 l 258 250 l 258 322 q 307 456 258 399 l 447 625 q 467 678 467 647 l 467 792 q 442 851 467 826 q 383 875 418 875 l 258 875 q 199 851 224 875 q 175 792 175 826 l 175 708 l 50 708 l 50 792 q 67 873 50 835 q 111 939 83 911 q 177 983 139 967 q 258 1000 215 1000 l 383 1000 m 258 0 l 258 146 l 383 146 l 383 0 l 258 0 z "},"@":{"ha":1167,"x_min":83,"x_max":1083,"o":"m 875 1000 q 956 983 918 1000 q 1022 939 994 967 q 1067 873 1050 911 q 1083 792 1083 835 l 1083 208 q 1067 127 1083 165 q 1022 61 1050 89 q 956 17 994 33 q 875 0 918 0 l 542 0 q 460 17 499 0 q 394 61 422 33 q 350 127 367 89 q 333 208 333 165 l 333 229 q 350 310 333 272 q 394 376 367 349 q 460 421 422 404 q 542 438 499 438 l 708 438 l 708 542 q 684 601 708 576 q 625 625 660 625 l 563 625 q 503 601 528 625 q 479 542 479 576 l 479 521 l 354 521 l 354 542 q 371 623 354 585 q 415 689 388 661 q 481 733 443 717 q 563 750 519 750 l 625 750 q 706 733 668 750 q 772 689 744 717 q 817 623 800 661 q 833 542 833 585 l 833 125 l 875 125 q 934 149 910 125 q 958 208 958 174 l 958 792 q 934 851 958 826 q 875 875 910 875 l 292 875 q 233 851 257 875 q 208 792 208 826 l 208 -42 q 233 -101 208 -76 q 292 -125 257 -125 l 833 -125 l 833 -250 l 292 -250 q 210 -233 249 -250 q 144 -189 172 -217 q 100 -123 117 -161 q 83 -42 83 -85 l 83 792 q 100 873 83 835 q 144 939 117 911 q 210 983 172 967 q 292 1000 249 1000 l 875 1000 m 708 313 l 542 313 q 483 288 507 313 q 458 229 458 264 l 458 208 q 483 149 458 174 q 542 125 507 125 l 708 125 l 708 313 z "},"A":{"ha":808,"x_min":50,"x_max":758,"o":"m 758 0 l 628 0 l 556 250 l 253 250 l 181 0 l 50 0 l 342 1000 l 467 1000 l 758 0 m 519 375 l 404 768 l 290 375 l 519 375 z "},"B":{"ha":725,"x_min":100,"x_max":642,"o":"m 642 667 q 619 572 642 615 q 558 500 596 528 q 619 428 596 472 q 642 333 642 385 l 642 208 q 625 127 642 165 q 581 61 608 89 q 515 17 553 33 q 433 0 476 0 l 100 0 l 100 1000 l 433 1000 q 515 983 476 1000 q 581 939 553 967 q 625 873 608 911 q 642 792 642 835 l 642 667 m 225 563 l 433 563 q 492 587 468 563 q 517 646 517 611 l 517 792 q 492 851 517 826 q 433 875 468 875 l 225 875 l 225 563 m 517 354 q 492 413 517 389 q 433 438 468 438 l 225 438 l 225 125 l 433 125 q 492 149 468 125 q 517 208 517 174 l 517 354 z "},"C":{"ha":692,"x_min":83,"x_max":625,"o":"m 500 708 l 500 792 q 476 851 500 826 q 417 875 451 875 l 292 875 q 233 851 257 875 q 208 792 208 826 l 208 208 q 233 149 208 174 q 292 125 257 125 l 417 125 q 476 149 451 125 q 500 208 500 174 l 500 292 l 625 292 l 625 208 q 608 127 625 165 q 564 61 592 89 q 498 17 536 33 q 417 0 460 0 l 292 0 q 210 17 249 0 q 144 61 172 33 q 100 127 117 89 q 83 208 83 165 l 83 792 q 100 873 83 835 q 144 939 117 911 q 210 983 172 967 q 292 1000 249 1000 l 417 1000 q 498 983 460 1000 q 564 939 536 967 q 608 873 592 911 q 625 792 625 835 l 625 708 l 500 708 z "},"D":{"ha":725,"x_min":100,"x_max":642,"o":"m 433 1000 q 515 983 476 1000 q 581 939 553 967 q 625 873 608 911 q 642 792 642 835 l 642 208 q 625 127 642 165 q 581 61 608 89 q 515 17 553 33 q 433 0 476 0 l 100 0 l 100 1000 l 433 1000 m 517 792 q 492 851 517 826 q 433 875 468 875 l 225 875 l 225 125 l 433 125 q 492 149 468 125 q 517 208 517 174 l 517 792 z "},"E":{"ha":683,"x_min":100,"x_max":600,"o":"m 225 875 l 225 563 l 538 563 l 538 438 l 225 438 l 225 125 l 600 125 l 600 0 l 100 0 l 100 1000 l 600 1000 l 600 875 l 225 875 z "},"F":{"ha":650,"x_min":100,"x_max":600,"o":"m 225 875 l 225 563 l 538 563 l 538 438 l 225 438 l 225 0 l 100 0 l 100 1000 l 600 1000 l 600 875 l 225 875 z "},"G":{"ha":708,"x_min":83,"x_max":625,"o":"m 500 708 l 500 792 q 476 851 500 826 q 417 875 451 875 l 292 875 q 233 851 257 875 q 208 792 208 826 l 208 208 q 233 149 208 174 q 292 125 257 125 l 417 125 q 476 149 451 125 q 500 208 500 174 l 500 396 l 354 396 l 354 521 l 625 521 l 625 208 q 608 127 625 165 q 564 61 592 89 q 498 17 536 33 q 417 0 460 0 l 292 0 q 210 17 249 0 q 144 61 172 33 q 100 127 117 89 q 83 208 83 165 l 83 792 q 100 873 83 835 q 144 939 117 911 q 210 983 172 967 q 292 1000 249 1000 l 417 1000 q 498 983 460 1000 q 564 939 536 967 q 608 873 592 911 q 625 792 625 835 l 625 708 l 500 708 z "},"H":{"ha":742,"x_min":100,"x_max":642,"o":"m 642 1000 l 642 0 l 517 0 l 517 438 l 225 438 l 225 0 l 100 0 l 100 1000 l 225 1000 l 225 563 l 517 563 l 517 1000 l 642 1000 z "},"I":{"ha":325,"x_min":100,"x_max":225,"o":"m 100 0 l 100 1000 l 225 1000 l 225 0 l 100 0 z "},"J":{"ha":650,"x_min":67,"x_max":567,"o":"m 567 1000 l 567 208 q 550 127 567 165 q 506 61 533 89 q 440 17 478 33 q 358 0 401 0 l 275 0 q 194 17 232 0 q 128 61 156 33 q 83 127 100 89 q 67 208 67 165 l 67 292 l 192 292 l 192 208 q 216 149 192 174 q 275 125 240 125 l 358 125 q 417 149 393 125 q 442 208 442 174 l 442 875 l 192 875 l 192 1000 l 567 1000 z "},"K":{"ha":717,"x_min":100,"x_max":683,"o":"m 378 500 l 683 0 l 538 0 l 304 381 l 225 250 l 225 0 l 100 0 l 100 1000 l 225 1000 l 225 490 l 538 1000 l 683 1000 l 378 500 z "},"L":{"ha":650,"x_min":100,"x_max":600,"o":"m 600 125 l 600 0 l 100 0 l 100 1000 l 225 1000 l 225 125 l 600 125 z "},"M":{"ha":908,"x_min":100,"x_max":808,"o":"m 808 1000 l 808 0 l 683 0 l 683 700 l 517 336 l 392 336 l 225 700 l 225 0 l 100 0 l 100 1000 l 225 1000 l 454 500 l 683 1000 l 808 1000 z "},"N":{"ha":783,"x_min":100,"x_max":683,"o":"m 683 1000 l 683 0 l 558 0 l 225 700 l 225 0 l 100 0 l 100 1000 l 225 1000 l 558 300 l 558 1000 l 683 1000 z "},"O":{"ha":708,"x_min":83,"x_max":625,"o":"m 417 1000 q 498 983 460 1000 q 564 939 536 967 q 608 873 592 911 q 625 792 625 835 l 625 208 q 608 127 625 165 q 564 61 592 89 q 498 17 536 33 q 417 0 460 0 l 292 0 q 210 17 249 0 q 144 61 172 33 q 100 127 117 89 q 83 208 83 165 l 83 792 q 100 873 83 835 q 144 939 117 911 q 210 983 172 967 q 292 1000 249 1000 l 417 1000 m 500 792 q 476 851 500 826 q 417 875 451 875 l 292 875 q 233 851 257 875 q 208 792 208 826 l 208 208 q 233 149 208 174 q 292 125 257 125 l 417 125 q 476 149 451 125 q 500 208 500 174 l 500 792 z "},"P":{"ha":708,"x_min":100,"x_max":642,"o":"m 433 1000 q 515 983 476 1000 q 581 939 553 967 q 625 873 608 911 q 642 792 642 835 l 642 583 q 625 502 642 540 q 581 436 608 464 q 515 392 553 408 q 433 375 476 375 l 225 375 l 225 0 l 100 0 l 100 1000 l 433 1000 m 517 792 q 492 851 517 826 q 433 875 468 875 l 225 875 l 225 500 l 433 500 q 492 524 468 500 q 517 583 517 549 l 517 792 z "},"Q":{"ha":725,"x_min":83,"x_max":708,"o":"m 708 6 l 619 -83 l 513 24 q 417 0 469 0 l 292 0 q 210 17 249 0 q 144 61 172 33 q 100 127 117 89 q 83 208 83 165 l 83 792 q 100 873 83 835 q 144 939 117 911 q 210 983 172 967 q 292 1000 249 1000 l 417 1000 q 498 983 460 1000 q 564 939 536 967 q 608 873 592 911 q 625 792 625 835 l 625 208 q 601 113 625 156 l 708 6 m 417 125 q 476 149 451 125 q 500 208 500 174 l 500 792 q 476 851 500 826 q 417 875 451 875 l 292 875 q 233 851 257 875 q 208 792 208 826 l 208 208 q 233 149 208 174 q 292 125 257 125 l 417 125 z "},"R":{"ha":725,"x_min":100,"x_max":642,"o":"m 642 583 q 597 453 642 510 q 483 381 551 397 l 642 0 l 507 0 l 350 375 l 225 375 l 225 0 l 100 0 l 100 1000 l 433 1000 q 515 983 476 1000 q 581 939 553 967 q 625 873 608 911 q 642 792 642 835 l 642 583 m 517 792 q 492 851 517 826 q 433 875 468 875 l 225 875 l 225 500 l 433 500 q 492 524 468 500 q 517 583 517 549 l 517 792 z "},"S":{"ha":708,"x_min":83,"x_max":625,"o":"m 625 208 q 608 127 625 165 q 564 61 592 89 q 498 17 536 33 q 417 0 460 0 l 292 0 q 210 17 249 0 q 144 61 172 33 q 100 127 117 89 q 83 208 83 165 l 83 292 l 208 292 l 208 208 q 233 149 208 174 q 292 125 257 125 l 417 125 q 476 149 451 125 q 500 208 500 174 l 500 293 q 460 364 500 339 l 185 529 q 110 605 138 557 q 83 707 83 653 l 83 792 q 100 873 83 835 q 144 939 117 911 q 210 983 172 967 q 292 1000 249 1000 l 417 1000 q 498 983 460 1000 q 564 939 536 967 q 608 873 592 911 q 625 792 625 835 l 625 708 l 500 708 l 500 792 q 476 851 500 826 q 417 875 451 875 l 292 875 q 233 851 257 875 q 208 792 208 826 l 208 707 q 219 667 208 686 q 249 636 229 647 l 524 471 q 598 395 571 443 q 625 293 625 347 l 625 208 z "},"T":{"ha":642,"x_min":50,"x_max":592,"o":"m 592 1000 l 592 875 l 383 875 l 383 0 l 258 0 l 258 875 l 50 875 l 50 1000 l 592 1000 z "},"U":{"ha":708,"x_min":83,"x_max":625,"o":"m 625 1000 l 625 208 q 608 127 625 165 q 564 61 592 89 q 498 17 536 33 q 417 0 460 0 l 292 0 q 210 17 249 0 q 144 61 172 33 q 100 127 117 89 q 83 208 83 165 l 83 1000 l 208 1000 l 208 208 q 233 149 208 174 q 292 125 257 125 l 417 125 q 476 149 451 125 q 500 208 500 174 l 500 1000 l 625 1000 z "},"V":{"ha":808,"x_min":50,"x_max":758,"o":"m 758 1000 l 467 0 l 342 0 l 50 1000 l 181 1000 l 404 232 l 628 1000 l 758 1000 z "},"W":{"ha":1092,"x_min":67,"x_max":1025,"o":"m 1025 1000 l 817 0 l 692 0 l 546 688 l 400 0 l 275 0 l 67 1000 l 194 1000 l 338 313 l 483 1000 l 608 1000 l 754 313 l 897 1000 l 1025 1000 z "},"X":{"ha":725,"x_min":50,"x_max":675,"o":"m 432 500 l 675 0 l 535 0 l 363 356 l 190 0 l 50 0 l 293 500 l 50 1000 l 190 1000 l 363 644 l 535 1000 l 675 1000 l 432 500 z "},"Y":{"ha":775,"x_min":33,"x_max":742,"o":"m 742 1000 l 450 417 l 450 0 l 325 0 l 325 417 l 33 1000 l 174 1000 l 388 571 l 601 1000 l 742 1000 z "},"Z":{"ha":675,"x_min":67,"x_max":608,"o":"m 608 875 l 214 125 l 608 125 l 608 0 l 67 0 l 67 125 l 461 875 l 67 875 l 67 1000 l 608 1000 l 608 875 z "},"[":{"ha":400,"x_min":100,"x_max":350,"o":"m 225 1000 l 225 0 l 350 0 l 350 -125 l 100 -125 l 100 1125 l 350 1125 l 350 1000 l 225 1000 z "},"\\":{"ha":600,"x_min":50,"x_max":550,"o":"m 550 0 l 417 0 l 50 1000 l 183 1000 l 550 0 z "},"]":{"ha":400,"x_min":50,"x_max":300,"o":"m 300 1125 l 300 -125 l 50 -125 l 50 0 l 175 0 l 175 1000 l 50 1000 l 50 1125 l 300 1125 z "},"^":{"ha":683,"x_min":50,"x_max":633,"o":"m 633 500 l 518 500 l 342 868 l 165 500 l 50 500 l 290 1000 l 394 1000 l 633 500 z "},"_":{"ha":867,"x_min":100,"x_max":767,"o":"m 100 -125 l 100 -21 l 767 -21 l 767 -125 l 100 -125 z "},"`":{"ha":440,"x_min":100,"x_max":340,"o":"m 340 750 l 222 750 l 100 958 l 218 958 l 340 750 z "},"a":{"ha":650,"x_min":67,"x_max":567,"o":"m 358 750 q 440 733 401 750 q 506 689 478 717 q 550 623 533 661 q 567 542 567 585 l 567 0 l 442 0 l 442 49 q 362 13 404 25 q 275 0 319 0 q 194 17 232 0 q 128 61 156 33 q 83 127 100 89 q 67 208 67 165 l 67 229 q 83 310 67 272 q 128 376 100 349 q 194 421 156 404 q 275 438 232 438 l 442 438 l 442 542 q 417 601 442 576 q 358 625 393 625 l 296 625 q 237 601 261 625 q 213 542 213 576 l 213 521 l 88 521 l 88 542 q 104 623 88 585 q 149 689 121 661 q 215 733 176 717 q 296 750 253 750 l 358 750 m 442 313 l 275 313 q 216 288 240 313 q 192 229 192 264 l 192 208 q 216 149 192 174 q 275 125 240 125 q 364 139 322 125 q 442 178 406 153 l 442 313 z "},"b":{"ha":683,"x_min":100,"x_max":600,"o":"m 392 750 q 473 733 435 750 q 539 689 511 717 q 583 623 567 661 q 600 542 600 585 l 600 208 q 583 127 600 165 q 539 61 567 89 q 473 17 511 33 q 392 0 435 0 q 305 13 347 0 q 225 49 263 25 l 225 0 l 100 0 l 100 1000 l 225 1000 l 225 701 q 305 738 263 725 q 392 750 347 750 m 475 542 q 451 601 475 576 q 392 625 426 625 q 303 611 344 625 q 225 572 261 597 l 225 178 q 303 139 261 153 q 392 125 344 125 q 451 149 426 125 q 475 208 475 174 l 475 542 z "},"c":{"ha":650,"x_min":83,"x_max":583,"o":"m 458 500 l 458 542 q 434 601 458 576 q 375 625 410 625 l 292 625 q 233 601 257 625 q 208 542 208 576 l 208 208 q 233 149 208 174 q 292 125 257 125 l 375 125 q 434 149 410 125 q 458 208 458 174 l 458 250 l 583 250 l 583 208 q 567 127 583 165 q 522 61 550 89 q 456 17 494 33 q 375 0 418 0 l 292 0 q 210 17 249 0 q 144 61 172 33 q 100 127 117 89 q 83 208 83 165 l 83 542 q 100 623 83 585 q 144 689 117 661 q 210 733 172 717 q 292 750 249 750 l 375 750 q 456 733 418 750 q 522 689 494 717 q 567 623 550 661 q 583 542 583 585 l 583 500 l 458 500 z "},"d":{"ha":683,"x_min":83,"x_max":583,"o":"m 583 1000 l 583 0 l 458 0 l 458 49 q 378 13 421 25 q 292 0 336 0 q 210 17 249 0 q 144 61 172 33 q 100 127 117 89 q 83 208 83 165 l 83 542 q 100 623 83 585 q 144 689 117 661 q 210 733 172 717 q 292 750 249 750 q 378 738 336 750 q 458 701 421 725 l 458 1000 l 583 1000 m 458 572 q 381 611 422 597 q 292 625 339 625 q 233 601 257 625 q 208 542 208 576 l 208 208 q 233 149 208 174 q 292 125 257 125 q 381 139 339 125 q 458 178 422 153 l 458 572 z "},"e":{"ha":667,"x_min":83,"x_max":583,"o":"m 208 313 l 208 208 q 233 149 208 174 q 292 125 257 125 l 375 125 q 434 149 410 125 q 458 208 458 174 l 458 229 l 583 229 l 583 208 q 567 127 583 165 q 522 61 550 89 q 456 17 494 33 q 375 0 418 0 l 292 0 q 210 17 249 0 q 144 61 172 33 q 100 127 117 89 q 83 208 83 165 l 83 542 q 100 623 83 585 q 144 689 117 661 q 210 733 172 717 q 292 750 249 750 l 375 750 q 456 733 418 750 q 522 689 494 717 q 567 623 550 661 q 583 542 583 585 l 583 313 l 208 313 m 208 438 l 458 438 l 458 542 q 434 601 458 576 q 375 625 410 625 l 292 625 q 233 601 257 625 q 208 542 208 576 l 208 438 z "},"f":{"ha":500,"x_min":50,"x_max":467,"o":"m 374 875 q 314 851 338 875 q 290 792 290 826 l 290 750 l 467 750 l 467 625 l 290 625 l 290 0 l 165 0 l 165 625 l 50 625 l 50 750 l 165 750 l 165 792 q 182 873 165 835 q 226 939 199 911 q 292 983 254 967 q 374 1000 331 1000 l 467 1000 l 467 875 l 374 875 z "},"g":{"ha":683,"x_min":83,"x_max":583,"o":"m 583 750 l 583 -125 q 567 -206 583 -168 q 522 -272 550 -244 q 456 -317 494 -300 q 375 -333 418 -333 l 292 -333 q 210 -317 249 -333 q 144 -272 172 -300 q 100 -206 117 -244 q 83 -125 83 -168 l 83 -83 l 208 -83 l 208 -125 q 233 -184 208 -160 q 292 -208 257 -208 l 375 -208 q 434 -184 410 -208 q 458 -125 458 -160 l 458 49 q 378 13 421 25 q 292 0 336 0 q 210 17 249 0 q 144 61 172 33 q 100 127 117 89 q 83 208 83 165 l 83 542 q 100 623 83 585 q 144 689 117 661 q 210 733 172 717 q 292 750 249 750 q 378 738 336 750 q 458 701 421 725 l 458 750 l 583 750 m 458 572 q 381 611 422 597 q 292 625 339 625 q 233 601 257 625 q 208 542 208 576 l 208 208 q 233 149 208 174 q 292 125 257 125 q 381 139 339 125 q 458 178 422 153 l 458 572 z "},"h":{"ha":683,"x_min":100,"x_max":600,"o":"m 392 750 q 473 733 435 750 q 539 689 511 717 q 583 623 567 661 q 600 542 600 585 l 600 0 l 475 0 l 475 542 q 451 601 475 576 q 392 625 426 625 q 303 611 344 625 q 225 572 261 597 l 225 0 l 100 0 l 100 1000 l 225 1000 l 225 701 q 305 738 263 725 q 392 750 347 750 z "},"i":{"ha":325,"x_min":100,"x_max":225,"o":"m 100 854 l 100 1000 l 225 1000 l 225 854 l 100 854 m 100 0 l 100 750 l 225 750 l 225 0 l 100 0 z "},"j":{"ha":340,"x_min":-83,"x_max":240,"o":"m 115 854 l 115 1000 l 240 1000 l 240 854 l 115 854 m 115 750 l 240 750 l 240 -125 q 224 -206 240 -168 q 178 -272 207 -244 q 113 -317 150 -300 q 32 -333 75 -333 l -83 -333 l -83 -208 l 32 -208 q 91 -184 67 -208 q 115 -125 115 -160 l 115 750 z "},"k":{"ha":675,"x_min":100,"x_max":642,"o":"m 364 375 l 642 0 l 486 0 l 286 269 l 225 188 l 225 0 l 100 0 l 100 1000 l 225 1000 l 225 397 l 486 750 l 642 750 l 364 375 z "},"l":{"ha":325,"x_min":100,"x_max":225,"o":"m 100 0 l 100 1000 l 225 1000 l 225 0 l 100 0 z "},"m":{"ha":1058,"x_min":100,"x_max":975,"o":"m 767 750 q 848 733 810 750 q 914 689 886 717 q 958 623 942 661 q 975 542 975 585 l 975 0 l 850 0 l 850 542 q 826 601 850 576 q 767 625 801 625 q 597 571 674 625 q 599 556 599 564 q 600 542 600 549 l 600 0 l 475 0 l 475 542 q 451 601 475 576 q 392 625 426 625 q 303 611 344 625 q 225 572 261 597 l 225 0 l 100 0 l 100 750 l 225 750 l 225 701 q 305 738 263 725 q 392 750 347 750 q 485 728 442 750 q 557 669 528 706 q 654 728 601 707 q 767 750 707 750 z "},"n":{"ha":683,"x_min":100,"x_max":600,"o":"m 392 750 q 473 733 435 750 q 539 689 511 717 q 583 623 567 661 q 600 542 600 585 l 600 0 l 475 0 l 475 542 q 451 601 475 576 q 392 625 426 625 q 303 611 344 625 q 225 572 261 597 l 225 0 l 100 0 l 100 750 l 225 750 l 225 701 q 305 738 263 725 q 392 750 347 750 z "},"o":{"ha":667,"x_min":83,"x_max":583,"o":"m 375 750 q 456 733 418 750 q 522 689 494 717 q 567 623 550 661 q 583 542 583 585 l 583 208 q 567 127 583 165 q 522 61 550 89 q 456 17 494 33 q 375 0 418 0 l 292 0 q 210 17 249 0 q 144 61 172 33 q 100 127 117 89 q 83 208 83 165 l 83 542 q 100 623 83 585 q 144 689 117 661 q 210 733 172 717 q 292 750 249 750 l 375 750 m 458 542 q 434 601 458 576 q 375 625 410 625 l 292 625 q 233 601 257 625 q 208 542 208 576 l 208 208 q 233 149 208 174 q 292 125 257 125 l 375 125 q 434 149 410 125 q 458 208 458 174 l 458 542 z "},"p":{"ha":683,"x_min":100,"x_max":600,"o":"m 392 750 q 473 733 435 750 q 539 689 511 717 q 583 623 567 661 q 600 542 600 585 l 600 208 q 583 127 600 165 q 539 61 567 89 q 473 17 511 33 q 392 0 435 0 q 305 13 347 0 q 225 49 263 25 l 225 -333 l 100 -333 l 100 750 l 225 750 l 225 701 q 305 738 263 725 q 392 750 347 750 m 475 542 q 451 601 475 576 q 392 625 426 625 q 303 611 344 625 q 225 572 261 597 l 225 178 q 303 139 261 153 q 392 125 344 125 q 451 149 426 125 q 475 208 475 174 l 475 542 z "},"q":{"ha":683,"x_min":83,"x_max":583,"o":"m 583 750 l 583 -333 l 458 -333 l 458 49 q 378 13 421 25 q 292 0 336 0 q 210 17 249 0 q 144 61 172 33 q 100 127 117 89 q 83 208 83 165 l 83 542 q 100 623 83 585 q 144 689 117 661 q 210 733 172 717 q 292 750 249 750 q 378 738 336 750 q 458 701 421 725 l 458 750 l 583 750 m 458 572 q 381 611 422 597 q 292 625 339 625 q 233 601 257 625 q 208 542 208 576 l 208 208 q 233 149 208 174 q 292 125 257 125 q 381 139 339 125 q 458 178 422 153 l 458 572 z "},"r":{"ha":525,"x_min":100,"x_max":475,"o":"m 392 750 q 475 739 433 750 l 475 613 q 392 625 436 625 q 303 611 344 625 q 225 572 261 597 l 225 0 l 100 0 l 100 750 l 225 750 l 225 701 q 305 738 263 725 q 392 750 347 750 z "},"s":{"ha":633,"x_min":67,"x_max":567,"o":"m 442 521 l 442 542 q 417 601 442 576 q 358 625 393 625 l 275 625 q 216 601 240 625 q 192 542 192 576 l 192 533 q 210 482 192 504 q 257 453 228 460 l 404 419 q 522 348 476 404 q 567 217 567 292 l 567 208 q 550 127 567 165 q 506 61 533 89 q 440 17 478 33 q 358 0 401 0 l 275 0 q 194 17 232 0 q 128 61 156 33 q 83 127 100 89 q 67 208 67 165 l 67 229 l 192 229 l 192 208 q 216 149 192 174 q 275 125 240 125 l 358 125 q 417 149 393 125 q 442 208 442 174 l 442 217 q 424 268 442 246 q 376 297 406 290 l 229 331 q 112 402 157 346 q 67 533 67 458 l 67 542 q 83 623 67 585 q 128 689 100 661 q 194 733 156 717 q 275 750 232 750 l 358 750 q 440 733 401 750 q 506 689 478 717 q 550 623 533 661 q 567 542 567 585 l 567 521 l 442 521 z "},"t":{"ha":500,"x_min":33,"x_max":450,"o":"m 274 625 l 274 208 q 297 149 274 174 q 357 125 321 125 l 450 125 l 450 0 l 357 0 q 276 17 314 0 q 210 61 238 33 q 165 127 182 89 q 149 208 149 165 l 149 625 l 33 625 l 33 750 l 149 750 l 149 1000 l 274 1000 l 274 750 l 450 750 l 450 625 l 274 625 z "},"u":{"ha":683,"x_min":83,"x_max":583,"o":"m 583 750 l 583 0 l 458 0 l 458 49 q 378 13 421 25 q 292 0 336 0 q 210 17 249 0 q 144 61 172 33 q 100 127 117 89 q 83 208 83 165 l 83 750 l 208 750 l 208 208 q 233 149 208 174 q 292 125 257 125 q 381 139 339 125 q 458 178 422 153 l 458 750 l 583 750 z "},"v":{"ha":671,"x_min":33,"x_max":638,"o":"m 638 750 l 399 0 l 274 0 l 33 750 l 165 750 l 336 215 l 507 750 l 638 750 z "},"w":{"ha":942,"x_min":33,"x_max":908,"o":"m 908 750 l 721 0 l 596 0 l 471 485 l 346 0 l 221 0 l 33 750 l 163 750 l 283 265 l 408 750 l 533 750 l 658 265 l 779 750 l 908 750 z "},"x":{"ha":671,"x_min":33,"x_max":638,"o":"m 410 375 l 638 0 l 489 0 l 336 253 l 182 0 l 33 0 l 261 375 l 33 750 l 182 750 l 336 497 l 489 750 l 638 750 l 410 375 z "},"y":{"ha":671,"x_min":33,"x_max":638,"o":"m 638 750 l 292 -333 l 160 -333 l 269 10 l 33 750 l 165 750 l 336 215 l 507 750 l 638 750 z "},"z":{"ha":633,"x_min":67,"x_max":567,"o":"m 567 625 l 226 125 l 567 125 l 567 0 l 67 0 l 67 125 l 407 625 l 67 625 l 67 750 l 567 750 l 567 625 z "},"{":{"ha":517,"x_min":50,"x_max":467,"o":"m 342 667 q 319 572 342 615 q 258 500 296 528 q 319 428 296 472 q 342 333 342 385 l 342 83 q 366 24 342 49 q 425 0 390 0 l 467 0 l 467 -125 l 425 -125 q 344 -108 382 -125 q 278 -64 306 -92 q 233 2 250 -36 q 217 83 217 40 l 217 354 q 192 413 217 389 q 133 438 168 438 l 50 438 l 50 563 l 133 563 q 192 587 168 563 q 217 646 217 611 l 217 917 q 233 998 217 960 q 278 1064 250 1036 q 344 1108 306 1092 q 425 1125 382 1125 l 467 1125 l 467 1000 l 425 1000 q 366 976 390 1000 q 342 917 342 951 l 342 667 z "},"|":{"ha":325,"x_min":100,"x_max":225,"o":"m 100 0 l 100 1000 l 225 1000 l 225 0 l 100 0 z "},"}":{"ha":517,"x_min":50,"x_max":467,"o":"m 467 563 l 467 438 l 383 438 q 324 413 349 438 q 300 354 300 389 l 300 83 q 283 2 300 40 q 239 -64 267 -36 q 173 -108 211 -92 q 92 -125 135 -125 l 50 -125 l 50 0 l 92 0 q 151 24 126 0 q 175 83 175 49 l 175 333 q 198 428 175 385 q 258 500 221 472 q 198 572 221 528 q 175 667 175 615 l 175 917 q 151 976 175 951 q 92 1000 126 1000 l 50 1000 l 50 1125 l 92 1125 q 173 1108 135 1125 q 239 1064 211 1092 q 283 998 267 1036 q 300 917 300 960 l 300 646 q 324 587 300 611 q 383 563 349 563 l 467 563 z "},"~":{"ha":804,"x_min":100,"x_max":704,"o":"m 704 525 l 704 500 q 649 365 704 421 q 586 324 621 338 q 514 310 551 310 q 378 365 433 310 l 376 368 l 351 396 q 292 421 324 421 q 229 394 256 421 q 204 333 204 367 l 204 310 l 100 310 l 100 333 q 156 468 100 413 q 292 525 213 525 q 364 510 329 525 q 426 468 399 496 l 429 465 l 453 438 q 514 414 479 414 q 575 439 550 414 q 600 500 600 464 l 600 525 l 704 525 z "}," ":{"ha":614,"x_min":0,"x_max":0,"o":""},"¡":{"ha":325,"x_min":100,"x_max":225,"o":"m 100 -250 l 100 500 l 225 500 l 225 -250 l 100 -250 m 100 604 l 100 750 l 225 750 l 225 604 l 100 604 z "},"¢":{"ha":650,"x_min":83,"x_max":583,"o":"m 458 500 l 458 542 q 434 601 458 576 q 375 625 410 625 l 292 625 q 233 601 257 625 q 208 542 208 576 l 208 208 q 233 149 208 174 q 292 125 257 125 l 375 125 q 434 149 410 125 q 458 208 458 174 l 458 250 l 583 250 l 583 208 q 568 130 583 167 q 526 65 553 93 q 463 19 499 36 q 386 0 428 3 l 386 -167 l 282 -167 l 282 0 q 204 19 240 3 q 141 65 168 36 q 99 130 114 93 q 83 208 83 167 l 83 542 q 99 620 83 583 q 141 685 114 657 q 204 731 168 714 q 282 750 240 749 l 282 917 l 386 917 l 386 750 q 463 731 428 749 q 526 685 499 714 q 568 620 553 657 q 583 542 583 583 l 583 500 l 458 500 z "},"£":{"ha":742,"x_min":50,"x_max":675,"o":"m 550 708 l 550 792 q 526 851 550 826 q 467 875 501 875 l 383 875 q 324 851 349 875 q 300 792 300 826 l 300 500 l 508 500 l 508 375 l 300 375 l 300 125 l 675 125 l 675 0 l 175 0 l 175 375 l 50 375 l 50 500 l 175 500 l 175 792 q 192 873 175 835 q 236 939 208 911 q 302 983 264 967 q 383 1000 340 1000 l 467 1000 q 548 983 510 1000 q 614 939 586 967 q 658 873 642 911 q 675 792 675 835 l 675 708 l 550 708 z "},"¤":{"ha":675,"x_min":67,"x_max":608,"o":"m 546 375 q 531 297 546 335 l 608 219 l 535 146 l 468 213 q 338 167 411 167 q 207 213 264 167 l 140 146 l 67 219 l 144 297 q 129 375 129 335 l 129 458 q 144 536 129 499 l 67 614 l 140 688 l 207 621 q 338 667 264 667 q 468 621 411 667 l 535 688 l 608 614 l 531 536 q 546 458 546 499 l 546 375 m 442 458 q 411 532 442 501 q 338 563 381 563 q 264 532 294 563 q 233 458 233 501 l 233 375 q 264 301 233 332 q 338 271 294 271 q 411 301 381 271 q 442 375 442 332 l 442 458 z "},"¥":{"ha":775,"x_min":33,"x_max":742,"o":"m 513 542 l 617 542 l 617 417 l 450 417 l 450 313 l 617 313 l 617 188 l 450 188 l 450 0 l 325 0 l 325 188 l 158 188 l 158 313 l 325 313 l 325 417 l 158 417 l 158 542 l 263 542 l 33 1000 l 174 1000 l 388 571 l 601 1000 l 742 1000 l 513 542 z "},"¦":{"ha":325,"x_min":100,"x_max":225,"o":"m 100 553 l 100 1000 l 225 1000 l 225 553 l 100 553 m 100 0 l 100 449 l 225 449 l 225 0 l 100 0 z "},"§":{"ha":667,"x_min":83,"x_max":583,"o":"m 458 771 l 458 792 q 434 851 458 826 q 375 875 410 875 l 292 875 q 233 851 257 875 q 208 792 208 826 l 208 783 q 226 732 208 754 q 274 703 244 710 l 421 669 q 538 598 493 654 q 583 467 583 542 l 583 458 q 544 338 583 392 q 583 217 583 283 l 583 208 q 567 127 583 165 q 522 61 550 89 q 456 17 494 33 q 375 0 418 0 l 292 0 q 210 17 249 0 q 144 61 172 33 q 100 127 117 89 q 83 208 83 165 l 83 229 l 208 229 l 208 208 q 233 149 208 174 q 292 125 257 125 l 375 125 q 434 149 410 125 q 458 208 458 174 l 458 217 q 440 268 458 246 q 393 297 422 290 l 246 331 q 128 402 174 346 q 83 533 83 458 l 83 542 q 122 663 83 608 q 83 783 83 717 l 83 792 q 100 873 83 835 q 144 939 117 911 q 210 983 172 967 q 292 1000 249 1000 l 375 1000 q 456 983 418 1000 q 522 939 494 967 q 567 873 550 911 q 583 792 583 835 l 583 771 l 458 771 m 222 588 q 208 542 208 564 l 208 533 q 226 482 208 504 q 274 453 244 460 l 421 419 q 444 413 432 418 q 458 458 458 436 l 458 467 q 440 518 458 496 q 393 547 422 540 l 246 581 q 234 583 239 582 q 222 588 229 585 z "},"¨":{"ha":554,"x_min":100,"x_max":454,"o":"m 100 750 l 100 896 l 225 896 l 225 750 l 100 750 m 329 750 l 329 896 l 454 896 l 454 750 l 329 750 z "},"©":{"ha":881,"x_min":83,"x_max":797,"o":"m 589 1000 q 670 983 632 1000 q 736 939 708 967 q 781 873 764 911 q 797 792 797 835 l 797 208 q 781 127 797 165 q 736 61 764 89 q 670 17 708 33 q 589 0 632 0 l 292 0 q 210 17 249 0 q 144 61 172 33 q 100 127 117 89 q 83 208 83 165 l 83 792 q 100 873 83 835 q 144 939 117 911 q 210 983 172 967 q 292 1000 249 1000 l 589 1000 m 719 792 q 709 843 719 819 q 681 884 699 867 q 639 912 663 901 q 589 922 615 922 l 292 922 q 199 884 238 922 q 161 792 161 846 l 161 208 q 199 116 161 154 q 292 78 238 78 l 589 78 q 639 88 615 78 q 681 116 663 99 q 709 158 699 133 q 719 208 719 182 l 719 792 m 479 813 q 572 774 533 813 q 610 682 610 736 l 610 631 l 531 631 l 531 682 q 516 719 531 704 q 479 735 501 735 l 401 735 q 364 719 379 735 q 349 682 349 704 l 349 318 q 364 281 349 296 q 401 265 379 265 l 479 265 q 516 281 501 265 q 531 318 531 296 l 531 369 l 610 369 l 610 318 q 572 226 610 264 q 479 188 533 188 l 401 188 q 309 226 347 188 q 271 318 271 264 l 271 682 q 309 774 271 736 q 401 813 347 813 l 479 813 z "},"ª":{"ha":450,"x_min":100,"x_max":350,"o":"m 246 875 q 319 844 289 875 q 350 771 350 814 l 350 500 l 288 500 l 288 525 q 204 500 250 500 q 131 531 161 500 q 100 604 100 561 l 100 615 q 131 689 100 658 q 204 719 161 719 l 288 719 l 288 771 q 276 801 288 789 q 246 813 264 813 l 215 813 q 185 801 197 813 q 174 771 174 789 l 174 761 l 111 761 l 111 771 q 141 844 111 814 q 215 875 171 875 l 246 875 m 288 657 l 204 657 q 174 644 186 657 q 163 615 163 632 l 163 604 q 174 574 163 586 q 204 563 186 563 q 288 589 250 563 l 288 657 z "},"«":{"ha":642,"x_min":83,"x_max":542,"o":"m 83 469 l 292 604 l 292 481 l 194 417 l 292 353 l 292 229 l 83 365 l 83 469 m 542 481 l 444 417 l 542 353 l 542 229 l 333 365 l 333 469 l 542 604 l 542 481 z "},"¬":{"ha":867,"x_min":100,"x_max":767,"o":"m 767 594 l 767 240 l 642 240 l 642 469 l 100 469 l 100 594 l 767 594 z "},"®":{"ha":881,"x_min":83,"x_max":797,"o":"m 589 1000 q 670 983 632 1000 q 736 939 708 967 q 781 873 764 911 q 797 792 797 835 l 797 208 q 781 127 797 165 q 736 61 764 89 q 670 17 708 33 q 589 0 632 0 l 292 0 q 210 17 249 0 q 144 61 172 33 q 100 127 117 89 q 83 208 83 165 l 83 792 q 100 873 83 835 q 144 939 117 911 q 210 983 172 967 q 292 1000 249 1000 l 589 1000 m 719 792 q 709 843 719 819 q 681 884 699 867 q 639 912 663 901 q 589 922 615 922 l 292 922 q 199 884 238 922 q 161 792 161 846 l 161 208 q 199 116 161 154 q 292 78 238 78 l 589 78 q 639 88 615 78 q 681 116 663 99 q 709 158 699 133 q 719 208 719 182 l 719 792 m 479 813 q 572 774 533 813 q 610 682 610 736 l 610 553 q 581 471 610 506 q 510 425 553 436 l 610 188 l 525 188 l 428 422 l 349 422 l 349 188 l 271 188 l 271 813 l 479 813 m 532 682 q 517 719 532 704 q 479 735 501 735 l 349 735 l 349 500 l 479 500 q 517 515 501 500 q 532 553 532 531 l 532 682 z "},"°":{"ha":450,"x_min":100,"x_max":350,"o":"m 225 1000 q 314 964 278 1000 q 350 875 350 928 q 314 786 350 822 q 225 750 278 750 q 136 786 172 750 q 100 875 100 822 q 136 964 100 928 q 225 1000 172 1000 m 225 813 q 269 831 251 813 q 288 875 288 849 q 269 919 288 901 q 225 938 251 938 q 181 919 199 938 q 163 875 163 901 q 181 831 163 849 q 225 813 199 813 z "},"±":{"ha":867,"x_min":100,"x_max":767,"o":"m 486 365 l 486 188 l 767 188 l 767 83 l 100 83 l 100 188 l 382 188 l 382 365 l 100 365 l 100 469 l 382 469 l 382 750 l 486 750 l 486 469 l 767 469 l 767 365 l 486 365 z "},"²":{"ha":471,"x_min":100,"x_max":371,"o":"m 371 847 q 350 785 371 813 l 182 563 l 371 563 l 371 500 l 100 500 l 100 563 l 300 824 q 308 849 308 835 l 308 896 q 297 926 308 914 q 267 938 285 938 l 204 938 q 174 926 186 938 q 163 896 163 914 l 163 854 l 100 854 l 100 896 q 131 969 100 939 q 204 1000 161 1000 l 267 1000 q 340 969 310 1000 q 371 896 371 939 l 371 847 z "},"³":{"ha":471,"x_min":100,"x_max":371,"o":"m 371 833 q 360 787 371 808 q 329 750 349 765 q 360 714 349 735 q 371 667 371 693 l 371 604 q 340 531 371 561 q 267 500 310 500 l 204 500 q 131 531 161 500 q 100 604 100 561 l 100 646 l 163 646 l 163 604 q 174 574 163 586 q 204 563 186 563 l 267 563 q 297 574 285 563 q 308 604 308 586 l 308 678 q 297 707 308 694 q 267 719 285 719 l 183 719 l 183 782 l 267 782 q 297 794 285 782 q 308 824 308 806 l 308 896 q 297 926 308 914 q 267 938 285 938 l 204 938 q 174 926 186 938 q 163 896 163 914 l 163 854 l 100 854 l 100 896 q 131 969 100 939 q 204 1000 161 1000 l 267 1000 q 340 969 310 1000 q 371 896 371 939 l 371 833 z "},"´":{"ha":440,"x_min":100,"x_max":340,"o":"m 340 958 l 218 750 l 100 750 l 222 958 l 340 958 z "},"¶":{"ha":771,"x_min":67,"x_max":671,"o":"m 671 1000 l 671 -83 l 567 -83 l 567 896 l 463 896 l 463 -83 l 358 -83 l 358 500 l 275 500 q 194 517 232 500 q 128 561 156 533 q 83 627 100 589 q 67 708 67 665 l 67 792 q 83 873 67 835 q 128 939 100 911 q 194 983 156 967 q 275 1000 232 1000 l 671 1000 m 358 896 l 275 896 q 201 865 232 896 q 171 792 171 835 l 171 708 q 201 635 171 665 q 275 604 232 604 l 358 604 l 358 896 z "},"·":{"ha":388,"x_min":100,"x_max":288,"o":"m 194 324 q 127 351 154 324 q 100 417 100 378 q 127 483 100 456 q 194 511 154 511 q 260 483 233 511 q 288 417 288 456 q 260 351 288 378 q 194 324 233 324 z "},"¹":{"ha":367,"x_min":100,"x_max":267,"o":"m 267 1000 l 267 500 l 204 500 l 204 938 l 100 938 l 100 1000 l 267 1000 z "},"º":{"ha":450,"x_min":100,"x_max":350,"o":"m 246 875 q 319 844 289 875 q 350 771 350 814 l 350 604 q 319 531 350 561 q 246 500 289 500 l 204 500 q 131 531 161 500 q 100 604 100 561 l 100 771 q 131 844 100 814 q 204 875 161 875 l 246 875 m 288 771 q 276 801 288 789 q 246 813 264 813 l 204 813 q 174 801 186 813 q 163 771 163 789 l 163 604 q 174 574 163 586 q 204 563 186 563 l 246 563 q 276 574 264 563 q 288 604 288 586 l 288 771 z "},"»":{"ha":642,"x_min":100,"x_max":558,"o":"m 100 604 l 308 469 l 308 365 l 100 229 l 100 353 l 197 417 l 100 481 l 100 604 m 558 469 l 558 365 l 350 229 l 350 353 l 447 417 l 350 481 l 350 604 l 558 469 z "},"¼":{"ha":808,"x_min":50,"x_max":758,"o":"m 133 938 l 50 938 l 50 1000 l 196 1000 l 196 500 l 133 500 l 133 938 m 758 1000 l 125 0 l 50 0 l 683 1000 l 758 1000 m 696 188 l 758 188 l 758 125 l 696 125 l 696 0 l 633 0 l 633 125 l 425 125 l 425 188 l 633 500 l 696 500 l 696 188 m 633 388 l 500 188 l 633 188 l 633 388 z "},"½":{"ha":808,"x_min":50,"x_max":758,"o":"m 133 938 l 50 938 l 50 1000 l 196 1000 l 196 500 l 133 500 l 133 938 m 758 1000 l 125 0 l 50 0 l 683 1000 l 758 1000 m 654 500 q 728 469 697 500 q 758 396 758 439 l 758 347 q 738 285 758 313 l 569 63 l 758 63 l 758 0 l 488 0 l 488 63 l 688 324 q 696 349 696 335 l 696 396 q 684 426 696 414 q 654 438 672 438 l 592 438 q 562 426 574 438 q 550 396 550 414 l 550 354 l 488 354 l 488 396 q 518 469 488 439 q 592 500 549 500 l 654 500 z "},"¾":{"ha":808,"x_min":50,"x_max":758,"o":"m 154 500 q 81 531 111 500 q 50 604 50 561 l 50 646 l 113 646 l 113 604 q 124 574 113 586 q 154 563 136 563 l 217 563 q 247 574 235 563 q 258 604 258 586 l 258 678 q 247 707 258 694 q 217 719 235 719 l 133 719 l 133 782 l 217 782 q 247 794 235 782 q 258 824 258 806 l 258 896 q 247 926 258 914 q 217 938 235 938 l 154 938 q 124 926 136 938 q 113 896 113 914 l 113 854 l 50 854 l 50 896 q 81 969 50 939 q 154 1000 111 1000 l 217 1000 q 290 969 260 1000 q 321 896 321 939 l 321 833 q 310 787 321 808 q 279 750 299 765 q 310 714 299 735 q 321 667 321 693 l 321 604 q 290 531 321 561 q 217 500 260 500 l 154 500 m 758 1000 l 125 0 l 50 0 l 683 1000 l 758 1000 m 696 188 l 758 188 l 758 125 l 696 125 l 696 0 l 633 0 l 633 125 l 425 125 l 425 188 l 633 500 l 696 500 l 696 188 m 633 388 l 500 188 l 633 188 l 633 388 z "},"¿":{"ha":642,"x_min":50,"x_max":592,"o":"m 592 42 l 592 -42 q 575 -123 592 -85 q 531 -189 558 -161 q 465 -233 503 -217 q 383 -250 426 -250 l 258 -250 q 177 -233 215 -250 q 111 -189 139 -217 q 67 -123 83 -161 q 50 -42 50 -85 l 50 72 q 99 206 50 149 l 239 375 q 258 428 258 397 l 258 500 l 383 500 l 383 428 q 335 294 383 351 l 194 125 q 175 72 175 103 l 175 -42 q 199 -101 175 -76 q 258 -125 224 -125 l 383 -125 q 442 -101 418 -125 q 467 -42 467 -76 l 467 42 l 592 42 m 258 604 l 258 750 l 383 750 l 383 604 l 258 604 z "},"À":{"ha":808,"x_min":50,"x_max":758,"o":"m 344 1104 l 222 1313 l 339 1313 l 461 1104 l 344 1104 m 758 0 l 628 0 l 556 250 l 253 250 l 181 0 l 50 0 l 342 1000 l 467 1000 l 758 0 m 519 375 l 404 768 l 290 375 l 519 375 z "},"Á":{"ha":808,"x_min":50,"x_max":758,"o":"m 464 1104 l 347 1104 l 469 1313 l 586 1313 l 464 1104 m 758 0 l 628 0 l 556 250 l 253 250 l 181 0 l 50 0 l 342 1000 l 467 1000 l 758 0 m 519 375 l 404 768 l 290 375 l 519 375 z "},"Â":{"ha":808,"x_min":50,"x_max":758,"o":"m 340 1104 l 217 1104 l 353 1313 l 457 1313 l 592 1104 l 468 1104 l 404 1201 l 340 1104 m 758 0 l 628 0 l 556 250 l 253 250 l 181 0 l 50 0 l 342 1000 l 467 1000 l 758 0 m 519 375 l 404 768 l 290 375 l 519 375 z "},"Ã":{"ha":808,"x_min":50,"x_max":758,"o":"m 332 1104 l 228 1104 l 228 1143 q 263 1228 228 1193 q 349 1264 299 1264 q 435 1228 399 1264 l 447 1214 q 460 1208 453 1208 q 472 1214 469 1208 q 476 1218 474 1215 q 478 1226 478 1221 l 478 1264 l 582 1264 l 582 1226 q 546 1140 582 1176 q 460 1104 510 1104 q 374 1140 410 1104 l 361 1154 q 349 1160 358 1160 q 336 1154 342 1160 q 332 1143 332 1150 l 332 1104 m 758 0 l 628 0 l 556 250 l 253 250 l 181 0 l 50 0 l 342 1000 l 467 1000 l 758 0 m 519 375 l 404 768 l 290 375 l 519 375 z "},"Ä":{"ha":808,"x_min":50,"x_max":758,"o":"m 228 1104 l 228 1250 l 353 1250 l 353 1104 l 228 1104 m 457 1104 l 457 1250 l 582 1250 l 582 1104 l 457 1104 m 758 0 l 628 0 l 556 250 l 253 250 l 181 0 l 50 0 l 342 1000 l 467 1000 l 758 0 m 519 375 l 404 768 l 290 375 l 519 375 z "},"Å":{"ha":808,"x_min":50,"x_max":758,"o":"m 404 1104 q 315 1140 351 1104 q 279 1229 279 1176 q 315 1318 279 1282 q 404 1354 351 1354 q 493 1318 457 1354 q 529 1229 529 1282 q 493 1140 529 1176 q 404 1104 457 1104 m 404 1292 q 360 1274 378 1292 q 342 1229 342 1256 q 360 1185 342 1203 q 404 1167 378 1167 q 449 1185 431 1167 q 467 1229 467 1203 q 449 1274 467 1256 q 404 1292 431 1292 m 758 0 l 628 0 l 556 250 l 253 250 l 181 0 l 50 0 l 342 1000 l 467 1000 l 758 0 m 519 375 l 404 768 l 290 375 l 519 375 z "},"Æ":{"ha":1117,"x_min":33,"x_max":1033,"o":"m 658 875 l 658 563 l 971 563 l 971 438 l 658 438 l 658 125 l 1033 125 l 1033 0 l 533 0 l 533 250 l 299 250 l 174 0 l 33 0 l 533 1000 l 1033 1000 l 1033 875 l 658 875 m 533 721 l 361 375 l 533 375 l 533 721 z "},"Ç":{"ha":692,"x_min":83,"x_max":625,"o":"m 500 708 l 500 792 q 476 851 500 826 q 417 875 451 875 l 292 875 q 233 851 257 875 q 208 792 208 826 l 208 208 q 233 149 208 174 q 292 125 257 125 l 417 125 q 476 149 451 125 q 500 208 500 174 l 500 292 l 625 292 l 625 208 q 608 127 625 165 q 564 61 592 89 q 498 17 536 33 q 417 0 460 0 l 417 -167 l 292 -167 l 292 0 q 210 17 249 0 q 144 61 172 33 q 100 127 117 89 q 83 208 83 165 l 83 792 q 100 873 83 835 q 144 939 117 911 q 210 983 172 967 q 292 1000 249 1000 l 417 1000 q 498 983 460 1000 q 564 939 536 967 q 608 873 592 911 q 625 792 625 835 l 625 708 l 500 708 z "},"È":{"ha":683,"x_min":100,"x_max":600,"o":"m 290 1104 l 168 1313 l 285 1313 l 407 1104 l 290 1104 m 225 875 l 225 563 l 538 563 l 538 438 l 225 438 l 225 125 l 600 125 l 600 0 l 100 0 l 100 1000 l 600 1000 l 600 875 l 225 875 z "},"É":{"ha":683,"x_min":100,"x_max":600,"o":"m 410 1104 l 293 1104 l 415 1313 l 532 1313 l 410 1104 m 225 875 l 225 563 l 538 563 l 538 438 l 225 438 l 225 125 l 600 125 l 600 0 l 100 0 l 100 1000 l 600 1000 l 600 875 l 225 875 z "},"Ê":{"ha":683,"x_min":100,"x_max":600,"o":"m 286 1104 l 163 1104 l 299 1313 l 403 1313 l 538 1104 l 414 1104 l 350 1201 l 286 1104 m 225 875 l 225 563 l 538 563 l 538 438 l 225 438 l 225 125 l 600 125 l 600 0 l 100 0 l 100 1000 l 600 1000 l 600 875 l 225 875 z "},"Ë":{"ha":683,"x_min":100,"x_max":600,"o":"m 174 1104 l 174 1250 l 299 1250 l 299 1104 l 174 1104 m 403 1104 l 403 1250 l 528 1250 l 528 1104 l 403 1104 m 225 875 l 225 563 l 538 563 l 538 438 l 225 438 l 225 125 l 600 125 l 600 0 l 100 0 l 100 1000 l 600 1000 l 600 875 l 225 875 z "},"Ì":{"ha":321,"x_min":-25,"x_max":219,"o":"m 97 1104 l -25 1313 l 93 1313 l 215 1104 l 97 1104 m 94 0 l 94 1000 l 219 1000 l 219 0 l 94 0 z "},"Í":{"ha":321,"x_min":100,"x_max":344,"o":"m 222 1104 l 106 1104 l 228 1313 l 344 1313 l 222 1104 m 100 0 l 100 1000 l 225 1000 l 225 0 l 100 0 z "},"Î":{"ha":325,"x_min":-25,"x_max":350,"o":"m 350 1104 l 226 1104 l 163 1201 l 99 1104 l -25 1104 l 111 1313 l 215 1313 l 350 1104 m 100 0 l 100 1000 l 225 1000 l 225 0 l 100 0 z "},"Ï":{"ha":321,"x_min":-17,"x_max":338,"o":"m -17 1104 l -17 1250 l 108 1250 l 108 1104 l -17 1104 m 213 1104 l 213 1250 l 338 1250 l 338 1104 l 213 1104 m 99 0 l 99 1000 l 224 1000 l 224 0 l 99 0 z "},"Ð":{"ha":800,"x_min":50,"x_max":717,"o":"m 508 1000 q 590 983 551 1000 q 656 939 628 967 q 700 873 683 911 q 717 792 717 835 l 717 208 q 700 127 717 165 q 656 61 683 89 q 590 17 628 33 q 508 0 551 0 l 175 0 l 175 438 l 50 438 l 50 563 l 175 563 l 175 1000 l 508 1000 m 592 792 q 567 851 592 826 q 508 875 543 875 l 300 875 l 300 563 l 446 563 l 446 438 l 300 438 l 300 125 l 508 125 q 567 149 543 125 q 592 208 592 174 l 592 792 z "},"Ñ":{"ha":783,"x_min":100,"x_max":683,"o":"m 319 1104 l 215 1104 l 215 1143 q 250 1228 215 1193 q 336 1264 286 1264 q 422 1228 386 1264 l 435 1214 q 447 1208 440 1208 q 460 1214 457 1208 q 463 1218 461 1215 q 465 1226 465 1221 l 465 1264 l 569 1264 l 569 1226 q 533 1140 569 1176 q 447 1104 497 1104 q 361 1140 397 1104 l 349 1154 q 336 1160 346 1160 q 324 1154 329 1160 q 319 1143 319 1150 l 319 1104 m 683 1000 l 683 0 l 558 0 l 225 700 l 225 0 l 100 0 l 100 1000 l 225 1000 l 558 300 l 558 1000 l 683 1000 z "},"Ò":{"ha":708,"x_min":83,"x_max":625,"o":"m 294 1104 l 172 1313 l 289 1313 l 411 1104 l 294 1104 m 417 1000 q 498 983 460 1000 q 564 939 536 967 q 608 873 592 911 q 625 792 625 835 l 625 208 q 608 127 625 165 q 564 61 592 89 q 498 17 536 33 q 417 0 460 0 l 292 0 q 210 17 249 0 q 144 61 172 33 q 100 127 117 89 q 83 208 83 165 l 83 792 q 100 873 83 835 q 144 939 117 911 q 210 983 172 967 q 292 1000 249 1000 l 417 1000 m 500 792 q 476 851 500 826 q 417 875 451 875 l 292 875 q 233 851 257 875 q 208 792 208 826 l 208 208 q 233 149 208 174 q 292 125 257 125 l 417 125 q 476 149 451 125 q 500 208 500 174 l 500 792 z "},"Ó":{"ha":708,"x_min":83,"x_max":625,"o":"m 414 1104 l 297 1104 l 419 1313 l 536 1313 l 414 1104 m 417 1000 q 498 983 460 1000 q 564 939 536 967 q 608 873 592 911 q 625 792 625 835 l 625 208 q 608 127 625 165 q 564 61 592 89 q 498 17 536 33 q 417 0 460 0 l 292 0 q 210 17 249 0 q 144 61 172 33 q 100 127 117 89 q 83 208 83 165 l 83 792 q 100 873 83 835 q 144 939 117 911 q 210 983 172 967 q 292 1000 249 1000 l 417 1000 m 500 792 q 476 851 500 826 q 417 875 451 875 l 292 875 q 233 851 257 875 q 208 792 208 826 l 208 208 q 233 149 208 174 q 292 125 257 125 l 417 125 q 476 149 451 125 q 500 208 500 174 l 500 792 z "},"Ô":{"ha":708,"x_min":83,"x_max":625,"o":"m 290 1104 l 167 1104 l 303 1313 l 407 1313 l 542 1104 l 418 1104 l 354 1201 l 290 1104 m 417 1000 q 498 983 460 1000 q 564 939 536 967 q 608 873 592 911 q 625 792 625 835 l 625 208 q 608 127 625 165 q 564 61 592 89 q 498 17 536 33 q 417 0 460 0 l 292 0 q 210 17 249 0 q 144 61 172 33 q 100 127 117 89 q 83 208 83 165 l 83 792 q 100 873 83 835 q 144 939 117 911 q 210 983 172 967 q 292 1000 249 1000 l 417 1000 m 500 792 q 476 851 500 826 q 417 875 451 875 l 292 875 q 233 851 257 875 q 208 792 208 826 l 208 208 q 233 149 208 174 q 292 125 257 125 l 417 125 q 476 149 451 125 q 500 208 500 174 l 500 792 z "},"Õ":{"ha":708,"x_min":83,"x_max":625,"o":"m 282 1104 l 178 1104 l 178 1143 q 213 1228 178 1193 q 299 1264 249 1264 q 385 1228 349 1264 l 397 1214 q 410 1208 403 1208 q 422 1214 419 1208 q 426 1218 424 1215 q 428 1226 428 1221 l 428 1264 l 532 1264 l 532 1226 q 496 1140 532 1176 q 410 1104 460 1104 q 324 1140 360 1104 l 311 1154 q 299 1160 308 1160 q 286 1154 292 1160 q 282 1143 282 1150 l 282 1104 m 417 1000 q 498 983 460 1000 q 564 939 536 967 q 608 873 592 911 q 625 792 625 835 l 625 208 q 608 127 625 165 q 564 61 592 89 q 498 17 536 33 q 417 0 460 0 l 292 0 q 210 17 249 0 q 144 61 172 33 q 100 127 117 89 q 83 208 83 165 l 83 792 q 100 873 83 835 q 144 939 117 911 q 210 983 172 967 q 292 1000 249 1000 l 417 1000 m 500 792 q 476 851 500 826 q 417 875 451 875 l 292 875 q 233 851 257 875 q 208 792 208 826 l 208 208 q 233 149 208 174 q 292 125 257 125 l 417 125 q 476 149 451 125 q 500 208 500 174 l 500 792 z "},"Ö":{"ha":708,"x_min":83,"x_max":625,"o":"m 178 1104 l 178 1250 l 303 1250 l 303 1104 l 178 1104 m 407 1104 l 407 1250 l 532 1250 l 532 1104 l 407 1104 m 417 1000 q 498 983 460 1000 q 564 939 536 967 q 608 873 592 911 q 625 792 625 835 l 625 208 q 608 127 625 165 q 564 61 592 89 q 498 17 536 33 q 417 0 460 0 l 292 0 q 210 17 249 0 q 144 61 172 33 q 100 127 117 89 q 83 208 83 165 l 83 792 q 100 873 83 835 q 144 939 117 911 q 210 983 172 967 q 292 1000 249 1000 l 417 1000 m 500 792 q 476 851 500 826 q 417 875 451 875 l 292 875 q 233 851 257 875 q 208 792 208 826 l 208 208 q 233 149 208 174 q 292 125 257 125 l 417 125 q 476 149 451 125 q 500 208 500 174 l 500 792 z "},"×":{"ha":742,"x_min":100,"x_max":642,"o":"m 444 417 l 642 219 l 568 146 l 371 343 l 174 146 l 100 219 l 297 417 l 100 614 l 174 688 l 371 490 l 568 688 l 642 614 l 444 417 z "},"Ø":{"ha":725,"x_min":50,"x_max":675,"o":"m 586 924 q 621 863 608 896 q 633 792 633 829 l 633 208 q 617 127 633 165 q 572 61 600 89 q 506 17 544 33 q 425 0 468 0 l 300 0 q 232 11 265 0 l 161 -167 l 50 -167 l 142 72 q 105 135 118 100 q 92 208 92 169 l 92 792 q 108 873 92 835 q 153 939 125 911 q 219 983 181 967 q 300 1000 257 1000 l 425 1000 q 494 988 461 1000 l 564 1167 l 675 1167 l 586 924 m 450 871 q 425 875 438 875 l 300 875 q 241 851 265 875 q 217 792 217 826 l 217 267 l 450 871 m 508 721 l 276 128 q 288 126 283 126 q 300 125 293 125 l 425 125 q 484 149 460 125 q 508 208 508 174 l 508 721 z "},"Ù":{"ha":708,"x_min":83,"x_max":625,"o":"m 294 1104 l 172 1313 l 289 1313 l 411 1104 l 294 1104 m 625 1000 l 625 208 q 608 127 625 165 q 564 61 592 89 q 498 17 536 33 q 417 0 460 0 l 292 0 q 210 17 249 0 q 144 61 172 33 q 100 127 117 89 q 83 208 83 165 l 83 1000 l 208 1000 l 208 208 q 233 149 208 174 q 292 125 257 125 l 417 125 q 476 149 451 125 q 500 208 500 174 l 500 1000 l 625 1000 z "},"Ú":{"ha":708,"x_min":83,"x_max":625,"o":"m 414 1104 l 297 1104 l 419 1313 l 536 1313 l 414 1104 m 625 1000 l 625 208 q 608 127 625 165 q 564 61 592 89 q 498 17 536 33 q 417 0 460 0 l 292 0 q 210 17 249 0 q 144 61 172 33 q 100 127 117 89 q 83 208 83 165 l 83 1000 l 208 1000 l 208 208 q 233 149 208 174 q 292 125 257 125 l 417 125 q 476 149 451 125 q 500 208 500 174 l 500 1000 l 625 1000 z "},"Û":{"ha":708,"x_min":83,"x_max":625,"o":"m 290 1104 l 167 1104 l 303 1313 l 407 1313 l 542 1104 l 418 1104 l 354 1201 l 290 1104 m 625 1000 l 625 208 q 608 127 625 165 q 564 61 592 89 q 498 17 536 33 q 417 0 460 0 l 292 0 q 210 17 249 0 q 144 61 172 33 q 100 127 117 89 q 83 208 83 165 l 83 1000 l 208 1000 l 208 208 q 233 149 208 174 q 292 125 257 125 l 417 125 q 476 149 451 125 q 500 208 500 174 l 500 1000 l 625 1000 z "},"Ü":{"ha":708,"x_min":83,"x_max":625,"o":"m 178 1104 l 178 1250 l 303 1250 l 303 1104 l 178 1104 m 407 1104 l 407 1250 l 532 1250 l 532 1104 l 407 1104 m 625 1000 l 625 208 q 608 127 625 165 q 564 61 592 89 q 498 17 536 33 q 417 0 460 0 l 292 0 q 210 17 249 0 q 144 61 172 33 q 100 127 117 89 q 83 208 83 165 l 83 1000 l 208 1000 l 208 208 q 233 149 208 174 q 292 125 257 125 l 417 125 q 476 149 451 125 q 500 208 500 174 l 500 1000 l 625 1000 z "},"Ý":{"ha":775,"x_min":33,"x_max":742,"o":"m 447 1104 l 331 1104 l 453 1313 l 569 1313 l 447 1104 m 742 1000 l 450 417 l 450 0 l 325 0 l 325 417 l 33 1000 l 174 1000 l 388 571 l 601 1000 l 742 1000 z "},"Þ":{"ha":708,"x_min":100,"x_max":642,"o":"m 433 833 q 515 817 476 833 q 581 772 553 800 q 625 706 608 744 q 642 625 642 668 l 642 417 q 625 335 642 374 q 581 269 608 297 q 515 225 553 242 q 433 208 476 208 l 225 208 l 225 0 l 100 0 l 100 1000 l 225 1000 l 225 833 l 433 833 m 517 625 q 492 684 517 660 q 433 708 468 708 l 225 708 l 225 333 l 433 333 q 492 358 468 333 q 517 417 517 382 l 517 625 z "},"ß":{"ha":667,"x_min":83,"x_max":583,"o":"m 583 667 q 560 572 583 615 q 500 500 538 528 q 560 428 538 472 q 583 333 583 385 l 583 208 q 567 127 583 165 q 522 61 550 89 q 456 17 494 33 q 375 0 418 0 l 292 0 l 292 125 l 375 125 q 434 149 410 125 q 458 208 458 174 l 458 354 q 434 413 458 389 q 375 438 410 438 l 292 438 l 292 563 l 375 563 q 434 587 410 563 q 458 646 458 611 l 458 792 q 434 851 458 826 q 375 875 410 875 l 292 875 q 233 851 257 875 q 208 792 208 826 l 208 0 l 83 0 l 83 792 q 100 873 83 835 q 144 939 117 911 q 210 983 172 967 q 292 1000 249 1000 l 375 1000 q 456 983 418 1000 q 522 939 494 967 q 567 873 550 911 q 583 792 583 835 l 583 667 z "},"à":{"ha":650,"x_min":67,"x_max":567,"o":"m 257 854 l 135 1063 l 251 1063 l 374 854 l 257 854 m 358 750 q 440 733 401 750 q 506 689 478 717 q 550 623 533 661 q 567 542 567 585 l 567 0 l 442 0 l 442 49 q 362 13 404 25 q 275 0 319 0 q 194 17 232 0 q 128 61 156 33 q 83 127 100 89 q 67 208 67 165 l 67 229 q 83 310 67 272 q 128 376 100 349 q 194 421 156 404 q 275 438 232 438 l 442 438 l 442 542 q 417 601 442 576 q 358 625 393 625 l 296 625 q 237 601 261 625 q 213 542 213 576 l 213 521 l 88 521 l 88 542 q 104 623 88 585 q 149 689 121 661 q 215 733 176 717 q 296 750 253 750 l 358 750 m 442 313 l 275 313 q 216 288 240 313 q 192 229 192 264 l 192 208 q 216 149 192 174 q 275 125 240 125 q 364 139 322 125 q 442 178 406 153 l 442 313 z "},"á":{"ha":650,"x_min":67,"x_max":567,"o":"m 376 854 l 260 854 l 382 1063 l 499 1063 l 376 854 m 358 750 q 440 733 401 750 q 506 689 478 717 q 550 623 533 661 q 567 542 567 585 l 567 0 l 442 0 l 442 49 q 362 13 404 25 q 275 0 319 0 q 194 17 232 0 q 128 61 156 33 q 83 127 100 89 q 67 208 67 165 l 67 229 q 83 310 67 272 q 128 376 100 349 q 194 421 156 404 q 275 438 232 438 l 442 438 l 442 542 q 417 601 442 576 q 358 625 393 625 l 296 625 q 237 601 261 625 q 213 542 213 576 l 213 521 l 88 521 l 88 542 q 104 623 88 585 q 149 689 121 661 q 215 733 176 717 q 296 750 253 750 l 358 750 m 442 313 l 275 313 q 216 288 240 313 q 192 229 192 264 l 192 208 q 216 149 192 174 q 275 125 240 125 q 364 139 322 125 q 442 178 406 153 l 442 313 z "},"â":{"ha":650,"x_min":67,"x_max":567,"o":"m 274 854 l 150 854 l 286 1063 l 390 1063 l 525 854 l 401 854 l 338 951 l 274 854 m 358 750 q 440 733 401 750 q 506 689 478 717 q 550 623 533 661 q 567 542 567 585 l 567 0 l 442 0 l 442 49 q 362 13 404 25 q 275 0 319 0 q 194 17 232 0 q 128 61 156 33 q 83 127 100 89 q 67 208 67 165 l 67 229 q 83 310 67 272 q 128 376 100 349 q 194 421 156 404 q 275 438 232 438 l 442 438 l 442 542 q 417 601 442 576 q 358 625 393 625 l 296 625 q 237 601 261 625 q 213 542 213 576 l 213 521 l 88 521 l 88 542 q 104 623 88 585 q 149 689 121 661 q 215 733 176 717 q 296 750 253 750 l 358 750 m 442 313 l 275 313 q 216 288 240 313 q 192 229 192 264 l 192 208 q 216 149 192 174 q 275 125 240 125 q 364 139 322 125 q 442 178 406 153 l 442 313 z "},"ã":{"ha":650,"x_min":67,"x_max":567,"o":"m 265 854 l 161 854 l 161 893 q 196 978 161 943 q 282 1014 232 1014 q 368 978 332 1014 l 381 964 q 393 958 386 958 q 406 964 403 958 q 409 968 407 965 q 411 976 411 971 l 411 1014 l 515 1014 l 515 976 q 479 890 515 926 q 393 854 443 854 q 307 890 343 854 l 294 904 q 282 910 292 910 q 269 904 275 910 q 265 893 265 900 l 265 854 m 358 750 q 440 733 401 750 q 506 689 478 717 q 550 623 533 661 q 567 542 567 585 l 567 0 l 442 0 l 442 49 q 362 13 404 25 q 275 0 319 0 q 194 17 232 0 q 128 61 156 33 q 83 127 100 89 q 67 208 67 165 l 67 229 q 83 310 67 272 q 128 376 100 349 q 194 421 156 404 q 275 438 232 438 l 442 438 l 442 542 q 417 601 442 576 q 358 625 393 625 l 296 625 q 237 601 261 625 q 213 542 213 576 l 213 521 l 88 521 l 88 542 q 104 623 88 585 q 149 689 121 661 q 215 733 176 717 q 296 750 253 750 l 358 750 m 442 313 l 275 313 q 216 288 240 313 q 192 229 192 264 l 192 208 q 216 149 192 174 q 275 125 240 125 q 364 139 322 125 q 442 178 406 153 l 442 313 z "},"ä":{"ha":650,"x_min":67,"x_max":567,"o":"m 161 854 l 161 1000 l 286 1000 l 286 854 l 161 854 m 390 854 l 390 1000 l 515 1000 l 515 854 l 390 854 m 358 750 q 440 733 401 750 q 506 689 478 717 q 550 623 533 661 q 567 542 567 585 l 567 0 l 442 0 l 442 49 q 362 13 404 25 q 275 0 319 0 q 194 17 232 0 q 128 61 156 33 q 83 127 100 89 q 67 208 67 165 l 67 229 q 83 310 67 272 q 128 376 100 349 q 194 421 156 404 q 275 438 232 438 l 442 438 l 442 542 q 417 601 442 576 q 358 625 393 625 l 296 625 q 237 601 261 625 q 213 542 213 576 l 213 521 l 88 521 l 88 542 q 104 623 88 585 q 149 689 121 661 q 215 733 176 717 q 296 750 253 750 l 358 750 m 442 313 l 275 313 q 216 288 240 313 q 192 229 192 264 l 192 208 q 216 149 192 174 q 275 125 240 125 q 364 139 322 125 q 442 178 406 153 l 442 313 z "},"å":{"ha":650,"x_min":67,"x_max":567,"o":"m 338 854 q 249 890 285 854 q 213 979 213 926 q 249 1068 213 1032 q 338 1104 285 1104 q 426 1068 390 1104 q 463 979 463 1032 q 426 890 463 926 q 338 854 390 854 m 338 1042 q 293 1024 311 1042 q 275 979 275 1006 q 293 935 275 953 q 338 917 311 917 q 382 935 364 917 q 400 979 400 953 q 382 1024 400 1006 q 338 1042 364 1042 m 358 750 q 440 733 401 750 q 506 689 478 717 q 550 623 533 661 q 567 542 567 585 l 567 0 l 442 0 l 442 49 q 362 13 404 25 q 275 0 319 0 q 194 17 232 0 q 128 61 156 33 q 83 127 100 89 q 67 208 67 165 l 67 229 q 83 310 67 272 q 128 376 100 349 q 194 421 156 404 q 275 438 232 438 l 442 438 l 442 542 q 417 601 442 576 q 358 625 393 625 l 296 625 q 237 601 261 625 q 213 542 213 576 l 213 521 l 88 521 l 88 542 q 104 623 88 585 q 149 689 121 661 q 215 733 176 717 q 296 750 253 750 l 358 750 m 442 313 l 275 313 q 216 288 240 313 q 192 229 192 264 l 192 208 q 216 149 192 174 q 275 125 240 125 q 364 139 322 125 q 442 178 406 153 l 442 313 z "},"æ":{"ha":1025,"x_min":67,"x_max":942,"o":"m 567 313 l 567 208 q 591 149 567 174 q 650 125 615 125 l 733 125 q 792 149 768 125 q 817 208 817 174 l 817 229 l 942 229 l 942 208 q 925 127 942 165 q 881 61 908 89 q 815 17 853 33 q 733 0 776 0 l 442 0 l 442 49 q 362 13 404 25 q 275 0 319 0 q 194 17 232 0 q 128 61 156 33 q 83 127 100 89 q 67 208 67 165 l 67 229 q 83 310 67 272 q 128 376 100 349 q 194 421 156 404 q 275 438 232 438 l 442 438 l 442 542 q 417 601 442 576 q 358 625 393 625 l 296 625 q 237 601 261 625 q 213 542 213 576 l 213 521 l 88 521 l 88 542 q 104 623 88 585 q 149 689 121 661 q 215 733 176 717 q 296 750 253 750 l 358 750 q 439 734 401 750 q 504 690 476 718 q 569 734 532 718 q 650 750 607 750 l 733 750 q 815 733 776 750 q 881 689 853 717 q 925 623 908 661 q 942 542 942 585 l 942 313 l 567 313 m 567 438 l 817 438 l 817 542 q 792 601 817 576 q 733 625 768 625 l 650 625 q 591 601 615 625 q 567 542 567 576 l 567 438 m 442 313 l 275 313 q 216 288 240 313 q 192 229 192 264 l 192 208 q 216 149 192 174 q 275 125 240 125 q 364 139 322 125 q 442 178 406 153 l 442 313 z "},"ç":{"ha":650,"x_min":83,"x_max":583,"o":"m 458 500 l 458 542 q 434 601 458 576 q 375 625 410 625 l 292 625 q 233 601 257 625 q 208 542 208 576 l 208 208 q 233 149 208 174 q 292 125 257 125 l 375 125 q 434 149 410 125 q 458 208 458 174 l 458 250 l 583 250 l 583 208 q 569 132 583 168 q 529 68 554 96 q 470 23 504 40 q 396 1 436 6 l 396 -167 l 271 -167 l 271 1 q 197 23 232 6 q 138 68 163 40 q 98 132 113 96 q 83 208 83 168 l 83 542 q 100 623 83 585 q 144 689 117 661 q 210 733 172 717 q 292 750 249 750 l 375 750 q 456 733 418 750 q 522 689 494 717 q 567 623 550 661 q 583 542 583 585 l 583 500 l 458 500 z "},"è":{"ha":667,"x_min":83,"x_max":583,"o":"m 274 854 l 151 1063 l 268 1063 l 390 854 l 274 854 m 208 313 l 208 208 q 233 149 208 174 q 292 125 257 125 l 375 125 q 434 149 410 125 q 458 208 458 174 l 458 229 l 583 229 l 583 208 q 567 127 583 165 q 522 61 550 89 q 456 17 494 33 q 375 0 418 0 l 292 0 q 210 17 249 0 q 144 61 172 33 q 100 127 117 89 q 83 208 83 165 l 83 542 q 100 623 83 585 q 144 689 117 661 q 210 733 172 717 q 292 750 249 750 l 375 750 q 456 733 418 750 q 522 689 494 717 q 567 623 550 661 q 583 542 583 585 l 583 313 l 208 313 m 208 438 l 458 438 l 458 542 q 434 601 458 576 q 375 625 410 625 l 292 625 q 233 601 257 625 q 208 542 208 576 l 208 438 z "},"é":{"ha":667,"x_min":83,"x_max":583,"o":"m 393 854 l 276 854 l 399 1063 l 515 1063 l 393 854 m 208 313 l 208 208 q 233 149 208 174 q 292 125 257 125 l 375 125 q 434 149 410 125 q 458 208 458 174 l 458 229 l 583 229 l 583 208 q 567 127 583 165 q 522 61 550 89 q 456 17 494 33 q 375 0 418 0 l 292 0 q 210 17 249 0 q 144 61 172 33 q 100 127 117 89 q 83 208 83 165 l 83 542 q 100 623 83 585 q 144 689 117 661 q 210 733 172 717 q 292 750 249 750 l 375 750 q 456 733 418 750 q 522 689 494 717 q 567 623 550 661 q 583 542 583 585 l 583 313 l 208 313 m 208 438 l 458 438 l 458 542 q 434 601 458 576 q 375 625 410 625 l 292 625 q 233 601 257 625 q 208 542 208 576 l 208 438 z "},"ê":{"ha":667,"x_min":83,"x_max":583,"o":"m 269 854 l 146 854 l 282 1063 l 386 1063 l 521 854 l 397 854 l 333 951 l 269 854 m 208 313 l 208 208 q 233 149 208 174 q 292 125 257 125 l 375 125 q 434 149 410 125 q 458 208 458 174 l 458 229 l 583 229 l 583 208 q 567 127 583 165 q 522 61 550 89 q 456 17 494 33 q 375 0 418 0 l 292 0 q 210 17 249 0 q 144 61 172 33 q 100 127 117 89 q 83 208 83 165 l 83 542 q 100 623 83 585 q 144 689 117 661 q 210 733 172 717 q 292 750 249 750 l 375 750 q 456 733 418 750 q 522 689 494 717 q 567 623 550 661 q 583 542 583 585 l 583 313 l 208 313 m 208 438 l 458 438 l 458 542 q 434 601 458 576 q 375 625 410 625 l 292 625 q 233 601 257 625 q 208 542 208 576 l 208 438 z "},"ë":{"ha":667,"x_min":83,"x_max":583,"o":"m 157 854 l 157 1000 l 282 1000 l 282 854 l 157 854 m 386 854 l 386 1000 l 511 1000 l 511 854 l 386 854 m 208 313 l 208 208 q 233 149 208 174 q 292 125 257 125 l 375 125 q 434 149 410 125 q 458 208 458 174 l 458 229 l 583 229 l 583 208 q 567 127 583 165 q 522 61 550 89 q 456 17 494 33 q 375 0 418 0 l 292 0 q 210 17 249 0 q 144 61 172 33 q 100 127 117 89 q 83 208 83 165 l 83 542 q 100 623 83 585 q 144 689 117 661 q 210 733 172 717 q 292 750 249 750 l 375 750 q 456 733 418 750 q 522 689 494 717 q 567 623 550 661 q 583 542 583 585 l 583 313 l 208 313 m 208 438 l 458 438 l 458 542 q 434 601 458 576 q 375 625 410 625 l 292 625 q 233 601 257 625 q 208 542 208 576 l 208 438 z "},"ì":{"ha":321,"x_min":-25,"x_max":219,"o":"m 97 854 l -25 1063 l 93 1063 l 215 854 l 97 854 m 94 0 l 94 750 l 219 750 l 219 0 l 94 0 z "},"í":{"ha":321,"x_min":100,"x_max":344,"o":"m 222 854 l 106 854 l 228 1063 l 344 1063 l 222 854 m 100 0 l 100 750 l 225 750 l 225 0 l 100 0 z "},"î":{"ha":325,"x_min":-25,"x_max":350,"o":"m 350 854 l 226 854 l 163 951 l 99 854 l -25 854 l 111 1063 l 215 1063 l 350 854 m 100 0 l 100 750 l 225 750 l 225 0 l 100 0 z "},"ï":{"ha":321,"x_min":-17,"x_max":338,"o":"m -17 854 l -17 1000 l 108 1000 l 108 854 l -17 854 m 213 854 l 213 1000 l 338 1000 l 338 854 l 213 854 m 99 0 l 99 750 l 224 750 l 224 0 l 99 0 z "},"ð":{"ha":742,"x_min":67,"x_max":692,"o":"m 692 826 l 567 754 l 567 208 q 550 127 567 165 q 506 61 533 89 q 440 17 478 33 q 358 0 401 0 l 275 0 q 194 17 232 0 q 128 61 156 33 q 83 127 100 89 q 67 208 67 165 l 67 354 q 83 435 67 397 q 128 501 100 474 q 194 546 156 529 q 275 563 232 563 l 442 563 l 442 682 l 349 628 l 296 718 l 442 801 q 414 854 438 833 q 358 875 390 875 l 192 875 l 192 1000 l 358 1000 q 477 963 425 1000 q 553 867 529 925 l 640 917 l 692 826 m 442 438 l 275 438 q 216 413 240 438 q 192 354 192 389 l 192 208 q 216 149 192 174 q 275 125 240 125 l 358 125 q 417 149 393 125 q 442 208 442 174 l 442 438 z "},"ñ":{"ha":683,"x_min":100,"x_max":600,"o":"m 278 854 l 174 854 l 174 893 q 208 978 174 943 q 294 1014 244 1014 q 381 978 344 1014 l 393 964 q 406 958 399 958 q 418 964 415 958 q 422 968 419 965 q 424 976 424 971 l 424 1014 l 528 1014 l 528 976 q 492 890 528 926 q 406 854 456 854 q 319 890 356 854 l 307 904 q 294 910 304 910 q 282 904 288 910 q 278 893 278 900 l 278 854 m 392 750 q 473 733 435 750 q 539 689 511 717 q 583 623 567 661 q 600 542 600 585 l 600 0 l 475 0 l 475 542 q 451 601 475 576 q 392 625 426 625 q 303 611 344 625 q 225 572 261 597 l 225 0 l 100 0 l 100 750 l 225 750 l 225 701 q 305 738 263 725 q 392 750 347 750 z "},"ò":{"ha":667,"x_min":83,"x_max":583,"o":"m 274 854 l 151 1063 l 268 1063 l 390 854 l 274 854 m 375 750 q 456 733 418 750 q 522 689 494 717 q 567 623 550 661 q 583 542 583 585 l 583 208 q 567 127 583 165 q 522 61 550 89 q 456 17 494 33 q 375 0 418 0 l 292 0 q 210 17 249 0 q 144 61 172 33 q 100 127 117 89 q 83 208 83 165 l 83 542 q 100 623 83 585 q 144 689 117 661 q 210 733 172 717 q 292 750 249 750 l 375 750 m 458 542 q 434 601 458 576 q 375 625 410 625 l 292 625 q 233 601 257 625 q 208 542 208 576 l 208 208 q 233 149 208 174 q 292 125 257 125 l 375 125 q 434 149 410 125 q 458 208 458 174 l 458 542 z "},"ó":{"ha":667,"x_min":83,"x_max":583,"o":"m 393 854 l 276 854 l 399 1063 l 515 1063 l 393 854 m 375 750 q 456 733 418 750 q 522 689 494 717 q 567 623 550 661 q 583 542 583 585 l 583 208 q 567 127 583 165 q 522 61 550 89 q 456 17 494 33 q 375 0 418 0 l 292 0 q 210 17 249 0 q 144 61 172 33 q 100 127 117 89 q 83 208 83 165 l 83 542 q 100 623 83 585 q 144 689 117 661 q 210 733 172 717 q 292 750 249 750 l 375 750 m 458 542 q 434 601 458 576 q 375 625 410 625 l 292 625 q 233 601 257 625 q 208 542 208 576 l 208 208 q 233 149 208 174 q 292 125 257 125 l 375 125 q 434 149 410 125 q 458 208 458 174 l 458 542 z "},"ô":{"ha":667,"x_min":83,"x_max":583,"o":"m 269 854 l 146 854 l 282 1063 l 386 1063 l 521 854 l 397 854 l 333 951 l 269 854 m 375 750 q 456 733 418 750 q 522 689 494 717 q 567 623 550 661 q 583 542 583 585 l 583 208 q 567 127 583 165 q 522 61 550 89 q 456 17 494 33 q 375 0 418 0 l 292 0 q 210 17 249 0 q 144 61 172 33 q 100 127 117 89 q 83 208 83 165 l 83 542 q 100 623 83 585 q 144 689 117 661 q 210 733 172 717 q 292 750 249 750 l 375 750 m 458 542 q 434 601 458 576 q 375 625 410 625 l 292 625 q 233 601 257 625 q 208 542 208 576 l 208 208 q 233 149 208 174 q 292 125 257 125 l 375 125 q 434 149 410 125 q 458 208 458 174 l 458 542 z "},"õ":{"ha":667,"x_min":83,"x_max":583,"o":"m 261 854 l 157 854 l 157 893 q 192 978 157 943 q 278 1014 228 1014 q 364 978 328 1014 l 376 964 q 389 958 382 958 q 401 964 399 958 q 405 968 403 965 q 407 976 407 971 l 407 1014 l 511 1014 l 511 976 q 475 890 511 926 q 389 854 439 854 q 303 890 339 854 l 290 904 q 278 910 288 910 q 265 904 271 910 q 261 893 261 900 l 261 854 m 375 750 q 456 733 418 750 q 522 689 494 717 q 567 623 550 661 q 583 542 583 585 l 583 208 q 567 127 583 165 q 522 61 550 89 q 456 17 494 33 q 375 0 418 0 l 292 0 q 210 17 249 0 q 144 61 172 33 q 100 127 117 89 q 83 208 83 165 l 83 542 q 100 623 83 585 q 144 689 117 661 q 210 733 172 717 q 292 750 249 750 l 375 750 m 458 542 q 434 601 458 576 q 375 625 410 625 l 292 625 q 233 601 257 625 q 208 542 208 576 l 208 208 q 233 149 208 174 q 292 125 257 125 l 375 125 q 434 149 410 125 q 458 208 458 174 l 458 542 z "},"ö":{"ha":667,"x_min":83,"x_max":583,"o":"m 157 854 l 157 1000 l 282 1000 l 282 854 l 157 854 m 386 854 l 386 1000 l 511 1000 l 511 854 l 386 854 m 375 750 q 456 733 418 750 q 522 689 494 717 q 567 623 550 661 q 583 542 583 585 l 583 208 q 567 127 583 165 q 522 61 550 89 q 456 17 494 33 q 375 0 418 0 l 292 0 q 210 17 249 0 q 144 61 172 33 q 100 127 117 89 q 83 208 83 165 l 83 542 q 100 623 83 585 q 144 689 117 661 q 210 733 172 717 q 292 750 249 750 l 375 750 m 458 542 q 434 601 458 576 q 375 625 410 625 l 292 625 q 233 601 257 625 q 208 542 208 576 l 208 208 q 233 149 208 174 q 292 125 257 125 l 375 125 q 434 149 410 125 q 458 208 458 174 l 458 542 z "},"÷":{"ha":867,"x_min":100,"x_max":767,"o":"m 371 604 l 371 750 l 496 750 l 496 604 l 371 604 m 100 365 l 100 469 l 767 469 l 767 365 l 100 365 m 371 83 l 371 229 l 496 229 l 496 83 l 371 83 z "},"ø":{"ha":692,"x_min":33,"x_max":658,"o":"m 560 660 q 586 605 576 635 q 596 542 596 575 l 596 208 q 579 127 596 165 q 535 61 563 89 q 469 17 507 33 q 388 0 431 0 l 304 0 q 224 15 263 0 l 151 -125 l 33 -125 l 139 82 q 96 208 96 136 l 96 542 q 113 623 96 585 q 157 689 129 661 q 223 733 185 717 q 304 750 261 750 l 388 750 q 469 733 432 750 l 540 875 l 658 875 l 560 660 m 413 621 q 388 625 400 625 l 304 625 q 245 601 269 625 q 221 542 221 576 l 221 244 l 413 621 m 471 489 l 282 128 q 304 125 296 125 l 388 125 q 447 149 422 125 q 471 208 471 174 l 471 489 z "},"ù":{"ha":683,"x_min":83,"x_max":583,"o":"m 274 854 l 151 1063 l 268 1063 l 390 854 l 274 854 m 583 750 l 583 0 l 458 0 l 458 49 q 378 13 421 25 q 292 0 336 0 q 210 17 249 0 q 144 61 172 33 q 100 127 117 89 q 83 208 83 165 l 83 750 l 208 750 l 208 208 q 233 149 208 174 q 292 125 257 125 q 381 139 339 125 q 458 178 422 153 l 458 750 l 583 750 z "},"ú":{"ha":683,"x_min":83,"x_max":583,"o":"m 393 854 l 276 854 l 399 1063 l 515 1063 l 393 854 m 583 750 l 583 0 l 458 0 l 458 49 q 378 13 421 25 q 292 0 336 0 q 210 17 249 0 q 144 61 172 33 q 100 127 117 89 q 83 208 83 165 l 83 750 l 208 750 l 208 208 q 233 149 208 174 q 292 125 257 125 q 381 139 339 125 q 458 178 422 153 l 458 750 l 583 750 z "},"û":{"ha":683,"x_min":83,"x_max":583,"o":"m 269 854 l 146 854 l 282 1063 l 386 1063 l 521 854 l 397 854 l 333 951 l 269 854 m 583 750 l 583 0 l 458 0 l 458 49 q 378 13 421 25 q 292 0 336 0 q 210 17 249 0 q 144 61 172 33 q 100 127 117 89 q 83 208 83 165 l 83 750 l 208 750 l 208 208 q 233 149 208 174 q 292 125 257 125 q 381 139 339 125 q 458 178 422 153 l 458 750 l 583 750 z "},"ü":{"ha":683,"x_min":83,"x_max":583,"o":"m 157 854 l 157 1000 l 282 1000 l 282 854 l 157 854 m 386 854 l 386 1000 l 511 1000 l 511 854 l 386 854 m 583 750 l 583 0 l 458 0 l 458 49 q 378 13 421 25 q 292 0 336 0 q 210 17 249 0 q 144 61 172 33 q 100 127 117 89 q 83 208 83 165 l 83 750 l 208 750 l 208 208 q 233 149 208 174 q 292 125 257 125 q 381 139 339 125 q 458 178 422 153 l 458 750 l 583 750 z "},"ý":{"ha":671,"x_min":33,"x_max":638,"o":"m 396 854 l 278 854 l 400 1063 l 518 1063 l 396 854 m 638 750 l 292 -333 l 160 -333 l 269 10 l 33 750 l 165 750 l 336 215 l 507 750 l 638 750 z "},"þ":{"ha":683,"x_min":100,"x_max":600,"o":"m 392 750 q 473 733 435 750 q 539 689 511 717 q 583 623 567 661 q 600 542 600 585 l 600 208 q 583 127 600 165 q 539 61 567 89 q 473 17 511 33 q 392 0 435 0 q 305 13 347 0 q 225 49 263 25 l 225 -333 l 100 -333 l 100 1000 l 225 1000 l 225 701 q 305 738 263 725 q 392 750 347 750 m 475 542 q 451 601 475 576 q 392 625 426 625 q 303 611 344 625 q 225 572 261 597 l 225 178 q 303 139 261 153 q 392 125 344 125 q 451 149 426 125 q 475 208 475 174 l 475 542 z "},"ÿ":{"ha":671,"x_min":33,"x_max":638,"o":"m 158 854 l 158 1000 l 283 1000 l 283 854 l 158 854 m 388 854 l 388 1000 l 513 1000 l 513 854 l 388 854 m 638 750 l 292 -333 l 160 -333 l 269 10 l 33 750 l 165 750 l 336 215 l 507 750 l 638 750 z "},"Ğ":{"ha":708,"x_min":83,"x_max":625,"o":"m 354 1104 q 286 1118 318 1104 q 230 1156 254 1132 q 192 1213 206 1181 q 178 1282 178 1244 l 282 1282 q 303 1230 282 1251 q 354 1208 324 1208 q 406 1230 385 1208 q 428 1282 428 1251 l 532 1282 q 518 1213 532 1244 q 480 1156 504 1181 q 423 1118 456 1132 q 354 1104 390 1104 m 500 708 l 500 792 q 476 851 500 826 q 417 875 451 875 l 292 875 q 233 851 257 875 q 208 792 208 826 l 208 208 q 233 149 208 174 q 292 125 257 125 l 417 125 q 476 149 451 125 q 500 208 500 174 l 500 375 l 354 375 l 354 500 l 625 500 l 625 208 q 608 127 625 165 q 564 61 592 89 q 498 17 536 33 q 417 0 460 0 l 292 0 q 210 17 249 0 q 144 61 172 33 q 100 127 117 89 q 83 208 83 165 l 83 792 q 100 873 83 835 q 144 939 117 911 q 210 983 172 967 q 292 1000 249 1000 l 417 1000 q 498 983 460 1000 q 564 939 536 967 q 608 873 592 911 q 625 792 625 835 l 625 708 l 500 708 z "},"ğ":{"ha":683,"x_min":83,"x_max":583,"o":"m 333 854 q 265 868 297 854 q 209 906 233 882 q 171 963 185 931 q 157 1032 157 994 l 261 1032 q 282 980 261 1001 q 333 958 303 958 q 385 980 364 958 q 407 1032 407 1001 l 511 1032 q 497 963 511 994 q 459 906 483 931 q 402 868 435 882 q 333 854 369 854 m 583 750 l 583 -125 q 567 -206 583 -168 q 522 -272 550 -244 q 456 -317 494 -300 q 375 -333 418 -333 l 292 -333 q 210 -317 249 -333 q 144 -272 172 -300 q 100 -206 117 -244 q 83 -125 83 -168 l 83 -83 l 208 -83 l 208 -125 q 233 -184 208 -160 q 292 -208 257 -208 l 375 -208 q 434 -184 410 -208 q 458 -125 458 -160 l 458 49 q 378 13 421 25 q 292 0 336 0 q 210 17 249 0 q 144 61 172 33 q 100 127 117 89 q 83 208 83 165 l 83 542 q 100 623 83 585 q 144 689 117 661 q 210 733 172 717 q 292 750 249 750 q 378 738 336 750 q 458 701 421 725 l 458 750 l 583 750 m 458 572 q 381 611 422 597 q 292 625 339 625 q 233 601 257 625 q 208 542 208 576 l 208 208 q 233 149 208 174 q 292 125 257 125 q 381 139 339 125 q 458 178 422 153 l 458 572 z "},"İ":{"ha":325,"x_min":100,"x_max":225,"o":"m 100 1104 l 100 1250 l 225 1250 l 225 1104 l 100 1104 m 100 0 l 100 1000 l 225 1000 l 225 0 l 100 0 z "},"ı":{"ha":325,"x_min":100,"x_max":225,"o":"m 100 0 l 100 750 l 225 750 l 225 0 l 100 0 z "},"Ł":{"ha":725,"x_min":50,"x_max":675,"o":"m 675 125 l 675 0 l 175 0 l 175 368 l 103 325 l 50 415 l 175 488 l 175 1000 l 300 1000 l 300 560 l 499 675 l 550 585 l 300 440 l 300 125 l 675 125 z "},"ł":{"ha":550,"x_min":50,"x_max":550,"o":"m 550 585 l 300 440 l 300 0 l 175 0 l 175 368 l 103 325 l 50 415 l 175 488 l 175 1000 l 300 1000 l 300 560 l 499 675 l 550 585 z "},"Œ":{"ha":1083,"x_min":83,"x_max":1000,"o":"m 625 875 l 625 563 l 938 563 l 938 438 l 625 438 l 625 125 l 1000 125 l 1000 0 l 292 0 q 210 17 249 0 q 144 61 172 33 q 100 127 117 89 q 83 208 83 165 l 83 792 q 100 873 83 835 q 144 939 117 911 q 210 983 172 967 q 292 1000 249 1000 l 1000 1000 l 1000 875 l 625 875 m 500 792 q 476 851 500 826 q 417 875 451 875 l 292 875 q 233 851 257 875 q 208 792 208 826 l 208 208 q 233 149 208 174 q 292 125 257 125 l 417 125 q 476 149 451 125 q 500 208 500 174 l 500 792 z "},"œ":{"ha":1042,"x_min":83,"x_max":958,"o":"m 583 313 l 583 208 q 608 149 583 174 q 667 125 632 125 l 750 125 q 809 149 785 125 q 833 208 833 174 l 833 229 l 958 229 l 958 208 q 942 127 958 165 q 897 61 925 89 q 831 17 869 33 q 750 0 793 0 l 667 0 q 586 16 624 0 q 521 60 549 32 q 456 16 493 32 q 375 0 418 0 l 292 0 q 210 17 249 0 q 144 61 172 33 q 100 127 117 89 q 83 208 83 165 l 83 542 q 100 623 83 585 q 144 689 117 661 q 210 733 172 717 q 292 750 249 750 l 375 750 q 456 734 418 750 q 521 690 493 718 q 586 734 549 718 q 667 750 624 750 l 750 750 q 831 733 793 750 q 897 689 869 717 q 942 623 925 661 q 958 542 958 585 l 958 313 l 583 313 m 583 438 l 833 438 l 833 542 q 809 601 833 576 q 750 625 785 625 l 667 625 q 608 601 632 625 q 583 542 583 576 l 583 438 m 458 542 q 434 601 458 576 q 375 625 410 625 l 292 625 q 233 601 257 625 q 208 542 208 576 l 208 208 q 233 149 208 174 q 292 125 257 125 l 375 125 q 434 149 410 125 q 458 208 458 174 l 458 542 z "},"Ş":{"ha":708,"x_min":83,"x_max":625,"o":"m 500 708 l 500 792 q 476 851 500 826 q 417 875 451 875 l 292 875 q 233 851 257 875 q 208 792 208 826 l 208 707 q 249 636 208 661 l 524 471 q 598 395 571 443 q 625 292 625 347 l 625 208 q 608 127 625 165 q 564 61 592 89 q 498 17 536 33 q 417 0 460 0 l 417 -167 l 292 -167 l 292 0 q 210 17 249 0 q 144 61 172 33 q 100 127 117 89 q 83 208 83 165 l 83 292 l 208 292 l 208 208 q 233 149 208 174 q 292 125 257 125 l 417 125 q 476 149 451 125 q 500 208 500 174 l 500 292 q 460 364 500 339 l 185 529 q 110 605 138 557 q 83 707 83 653 l 83 792 q 100 873 83 835 q 144 939 117 911 q 210 983 172 967 q 292 1000 249 1000 l 417 1000 q 498 983 460 1000 q 564 939 536 967 q 608 873 592 911 q 625 792 625 835 l 625 708 l 500 708 z "},"ş":{"ha":633,"x_min":67,"x_max":567,"o":"m 442 521 l 442 542 q 417 601 442 576 q 358 625 393 625 l 275 625 q 216 601 240 625 q 192 542 192 576 l 192 533 q 210 482 192 504 q 257 453 228 460 l 404 419 q 522 348 476 404 q 567 217 567 292 l 567 208 q 552 132 567 168 q 513 68 538 96 q 453 23 488 40 q 379 1 419 6 l 379 -167 l 254 -167 l 254 1 q 181 23 215 6 q 121 68 146 40 q 81 132 96 96 q 67 208 67 168 l 67 229 l 192 229 l 192 208 q 216 149 192 174 q 275 125 240 125 l 358 125 q 417 149 393 125 q 442 208 442 174 l 442 217 q 424 268 442 246 q 376 297 406 290 l 229 331 q 112 402 157 346 q 67 533 67 458 l 67 542 q 83 623 67 585 q 128 689 100 661 q 194 733 156 717 q 275 750 232 750 l 358 750 q 440 733 401 750 q 506 689 478 717 q 550 623 533 661 q 567 542 567 585 l 567 521 l 442 521 z "},"Š":{"ha":708,"x_min":83,"x_max":625,"o":"m 303 1104 l 167 1313 l 290 1313 l 354 1215 l 418 1313 l 542 1313 l 407 1104 l 303 1104 m 500 708 l 500 792 q 476 851 500 826 q 417 875 451 875 l 292 875 q 233 851 257 875 q 208 792 208 826 l 208 707 q 249 636 208 661 l 524 471 q 598 395 571 443 q 625 293 625 347 l 625 208 q 608 127 625 165 q 564 61 592 89 q 498 17 536 33 q 417 0 460 0 l 292 0 q 210 17 249 0 q 144 61 172 33 q 100 127 117 89 q 83 208 83 165 l 83 292 l 208 292 l 208 208 q 233 149 208 174 q 292 125 257 125 l 417 125 q 476 149 451 125 q 500 208 500 174 l 500 293 q 460 364 500 339 l 185 529 q 110 605 138 557 q 83 707 83 653 l 83 792 q 100 873 83 835 q 144 939 117 911 q 210 983 172 967 q 292 1000 249 1000 l 417 1000 q 498 983 460 1000 q 564 939 536 967 q 608 873 592 911 q 625 792 625 835 l 625 708 l 500 708 z "},"š":{"ha":633,"x_min":67,"x_max":567,"o":"m 265 854 l 129 1063 l 253 1063 l 317 965 l 381 1063 l 504 1063 l 369 854 l 265 854 m 442 521 l 442 542 q 417 601 442 576 q 358 625 393 625 l 275 625 q 216 601 240 625 q 192 542 192 576 l 192 533 q 210 482 192 504 q 257 453 228 460 l 404 419 q 522 348 476 404 q 567 217 567 292 l 567 208 q 550 127 567 165 q 506 61 533 89 q 440 17 478 33 q 358 0 401 0 l 275 0 q 194 17 232 0 q 128 61 156 33 q 83 127 100 89 q 67 208 67 165 l 67 229 l 192 229 l 192 208 q 216 149 192 174 q 275 125 240 125 l 358 125 q 417 149 393 125 q 442 208 442 174 l 442 217 q 424 268 442 246 q 376 297 406 290 l 229 331 q 112 402 157 346 q 67 533 67 458 l 67 542 q 83 623 67 585 q 128 689 100 661 q 194 733 156 717 q 275 750 232 750 l 358 750 q 440 733 401 750 q 506 689 478 717 q 550 623 533 661 q 567 542 567 585 l 567 521 l 442 521 z "},"Ÿ":{"ha":775,"x_min":33,"x_max":742,"o":"m 211 1104 l 211 1250 l 336 1250 l 336 1104 l 211 1104 m 440 1104 l 440 1250 l 565 1250 l 565 1104 l 440 1104 m 742 1000 l 450 417 l 450 0 l 325 0 l 325 417 l 33 1000 l 174 1000 l 388 571 l 601 1000 l 742 1000 z "},"ž":{"ha":633,"x_min":67,"x_max":567,"o":"m 265 854 l 129 1063 l 253 1063 l 317 965 l 381 1063 l 504 1063 l 369 854 l 265 854 m 567 625 l 226 125 l 567 125 l 567 0 l 67 0 l 67 125 l 407 625 l 67 625 l 67 750 l 567 750 l 567 625 z "},"ƒ":{"ha":588,"x_min":33,"x_max":554,"o":"m 440 875 q 381 851 404 875 q 357 792 357 826 l 357 750 l 554 750 l 554 625 l 357 625 l 357 208 q 340 127 357 165 q 295 61 324 89 q 229 17 267 33 q 149 0 192 0 l 33 0 l 33 125 l 149 125 q 208 149 183 125 q 232 208 232 174 l 232 625 l 96 625 l 96 750 l 232 750 l 232 792 q 249 873 232 835 q 293 939 265 911 q 359 983 321 967 q 440 1000 397 1000 l 554 1000 l 554 875 l 440 875 z "},"ˆ":{"ha":575,"x_min":100,"x_max":475,"o":"m 475 750 l 351 750 l 288 847 l 224 750 l 100 750 l 236 958 l 340 958 l 475 750 z "},"ˇ":{"ha":575,"x_min":100,"x_max":475,"o":"m 475 958 l 340 750 l 236 750 l 100 958 l 224 958 l 288 861 l 351 958 l 475 958 z "},"˘":{"ha":554,"x_min":100,"x_max":454,"o":"m 454 928 q 440 858 454 890 q 403 802 426 826 q 347 764 379 778 q 278 750 314 750 q 208 764 240 750 q 152 802 176 778 q 114 858 128 826 q 100 928 100 890 l 204 928 q 226 876 204 897 q 278 854 247 854 q 328 876 307 854 q 350 928 350 897 l 454 928 z "},"˙":{"ha":325,"x_min":100,"x_max":225,"o":"m 100 750 l 100 896 l 225 896 l 225 750 l 100 750 z "},"˚":{"ha":450,"x_min":100,"x_max":350,"o":"m 225 1000 q 314 964 278 1000 q 350 875 350 928 q 314 786 350 822 q 225 750 278 750 q 136 786 172 750 q 100 875 100 822 q 136 964 100 928 q 225 1000 172 1000 m 225 813 q 269 831 251 813 q 288 875 288 849 q 269 919 288 901 q 225 938 251 938 q 181 919 199 938 q 163 875 163 901 q 181 831 163 849 q 225 813 199 813 z "},"˜":{"ha":554,"x_min":100,"x_max":454,"o":"m 454 910 l 454 872 q 418 786 454 819 q 333 750 385 750 q 247 786 281 750 l 233 800 q 222 806 231 806 q 210 800 213 806 q 204 789 204 797 l 204 750 l 100 750 l 100 789 q 136 874 100 840 q 222 910 169 910 q 307 874 274 910 l 321 860 q 333 854 324 854 q 344 860 342 854 q 350 872 350 863 l 350 910 l 454 910 z "},"μ":{"ha":700,"x_min":100,"x_max":600,"o":"m 600 750 l 600 0 l 475 0 l 475 49 q 395 13 438 25 q 308 0 353 0 q 225 18 265 0 l 225 -333 l 100 -333 l 100 750 l 225 750 l 225 208 q 249 149 225 174 q 308 125 274 125 q 397 139 356 125 q 475 178 439 153 l 475 750 l 600 750 z "},"π":{"ha":967,"x_min":67,"x_max":900,"o":"m 733 625 l 733 208 q 758 149 733 174 q 817 125 782 125 l 900 125 l 900 0 l 817 0 q 735 17 774 0 q 669 61 697 33 q 625 127 642 89 q 608 208 608 165 l 608 625 l 358 625 l 358 0 l 233 0 l 233 625 l 67 625 l 67 750 l 900 750 l 900 625 l 733 625 z "},"–":{"ha":867,"x_min":100,"x_max":767,"o":"m 100 365 l 100 469 l 767 469 l 767 365 l 100 365 z "},"—":{"ha":1158,"x_min":100,"x_max":1058,"o":"m 100 365 l 100 469 l 1058 469 l 1058 365 l 100 365 z "},"‘":{"ha":325,"x_min":100,"x_max":225,"o":"m 204 938 q 174 926 186 938 q 163 896 163 914 l 163 854 l 225 854 l 225 708 l 100 708 l 100 896 q 131 969 100 939 q 204 1000 161 1000 l 225 1000 l 225 938 l 204 938 z "},"’":{"ha":325,"x_min":100,"x_max":225,"o":"m 225 1000 l 225 813 q 194 739 225 769 q 121 708 164 708 l 100 708 l 100 771 l 121 771 q 151 783 139 771 q 163 813 163 796 l 163 854 l 100 854 l 100 1000 l 225 1000 z "},"‚":{"ha":325,"x_min":100,"x_max":225,"o":"m 225 146 l 225 -42 q 194 -115 225 -85 q 121 -146 164 -146 l 100 -146 l 100 -83 l 121 -83 q 151 -72 139 -83 q 163 -42 163 -60 l 163 0 l 100 0 l 100 146 l 225 146 z "},"“":{"ha":492,"x_min":100,"x_max":392,"o":"m 100 896 q 131 969 100 939 q 204 1000 161 1000 l 225 1000 l 225 938 l 204 938 q 174 926 186 938 q 163 896 163 914 l 163 854 l 225 854 l 225 708 l 100 708 l 100 896 m 371 938 q 341 926 353 938 q 329 896 329 914 l 329 854 l 392 854 l 392 708 l 267 708 l 267 896 q 297 969 267 939 q 371 1000 328 1000 l 392 1000 l 392 938 l 371 938 z "},"”":{"ha":492,"x_min":100,"x_max":392,"o":"m 100 1000 l 225 1000 l 225 813 q 194 739 225 769 q 121 708 164 708 l 100 708 l 100 771 l 121 771 q 151 783 139 771 q 163 813 163 796 l 163 854 l 100 854 l 100 1000 m 392 1000 l 392 813 q 361 739 392 769 q 288 708 331 708 l 267 708 l 267 771 l 288 771 q 317 783 306 771 q 329 813 329 796 l 329 854 l 267 854 l 267 1000 l 392 1000 z "},"„":{"ha":492,"x_min":100,"x_max":392,"o":"m 100 146 l 225 146 l 225 -42 q 194 -115 225 -85 q 121 -146 164 -146 l 100 -146 l 100 -83 l 121 -83 q 151 -72 139 -83 q 163 -42 163 -60 l 163 0 l 100 0 l 100 146 m 392 146 l 392 -42 q 361 -115 392 -85 q 288 -146 331 -146 l 267 -146 l 267 -83 l 288 -83 q 317 -72 306 -83 q 329 -42 329 -60 l 329 0 l 267 0 l 267 146 l 392 146 z "},"†":{"ha":600,"x_min":50,"x_max":550,"o":"m 550 750 l 550 625 l 363 625 l 363 -83 l 238 -83 l 238 625 l 50 625 l 50 750 l 238 750 l 238 1000 l 363 1000 l 363 750 l 550 750 z "},"‡":{"ha":600,"x_min":50,"x_max":550,"o":"m 363 625 l 363 292 l 550 292 l 550 167 l 363 167 l 363 -83 l 238 -83 l 238 167 l 50 167 l 50 292 l 238 292 l 238 625 l 50 625 l 50 750 l 238 750 l 238 1000 l 363 1000 l 363 750 l 550 750 l 550 625 l 363 625 z "},"•":{"ha":575,"x_min":100,"x_max":475,"o":"m 288 229 q 215 244 249 229 q 155 284 181 258 q 115 344 129 310 q 100 417 100 378 q 115 490 100 456 q 155 549 129 524 q 215 590 181 575 q 288 604 249 604 q 360 590 326 604 q 420 549 394 575 q 460 490 446 524 q 475 417 475 456 q 460 344 475 378 q 420 284 446 310 q 360 244 394 258 q 288 229 326 229 z "},"…":{"ha":783,"x_min":100,"x_max":683,"o":"m 100 0 l 100 146 l 225 146 l 225 0 l 100 0 m 329 0 l 329 146 l 454 146 l 454 0 l 329 0 m 558 0 l 558 146 l 683 146 l 683 0 l 558 0 z "},"‰":{"ha":1538,"x_min":50,"x_max":1488,"o":"m 842 1000 l 335 0 l 217 0 l 724 1000 l 842 1000 m 467 708 q 450 627 467 665 q 406 561 433 589 q 340 517 378 533 q 258 500 301 500 q 177 517 215 500 q 111 561 139 533 q 67 627 83 589 q 50 708 50 665 l 50 792 q 67 873 50 835 q 111 939 83 911 q 177 983 139 967 q 258 1000 215 1000 q 340 983 301 1000 q 406 939 378 967 q 450 873 433 911 q 467 792 467 835 l 467 708 m 154 708 q 185 635 154 665 q 258 604 215 604 q 332 635 301 604 q 363 708 363 665 l 363 792 q 332 865 363 835 q 258 896 301 896 q 185 865 215 896 q 154 792 154 835 l 154 708 m 800 500 q 881 483 843 500 q 947 439 919 467 q 992 373 975 411 q 1008 292 1008 335 l 1008 208 q 992 127 1008 165 q 947 61 975 89 q 881 17 919 33 q 800 0 843 0 q 719 17 757 0 q 653 61 681 33 q 608 127 625 89 q 592 208 592 165 l 592 292 q 608 373 592 335 q 653 439 625 411 q 719 483 681 467 q 800 500 757 500 m 904 292 q 874 365 904 335 q 800 396 843 396 q 726 365 757 396 q 696 292 696 335 l 696 208 q 726 135 696 165 q 800 104 757 104 q 874 135 843 104 q 904 208 904 165 l 904 292 m 1279 500 q 1360 483 1322 500 q 1426 439 1399 467 q 1471 373 1454 411 q 1488 292 1488 335 l 1488 208 q 1471 127 1488 165 q 1426 61 1454 89 q 1360 17 1399 33 q 1279 0 1322 0 q 1198 17 1236 0 q 1132 61 1160 33 q 1088 127 1104 89 q 1071 208 1071 165 l 1071 292 q 1088 373 1071 335 q 1132 439 1104 411 q 1198 483 1160 467 q 1279 500 1236 500 m 1383 292 q 1353 365 1383 335 q 1279 396 1322 396 q 1206 365 1236 396 q 1175 292 1175 335 l 1175 208 q 1206 135 1175 165 q 1279 104 1236 104 q 1353 135 1322 104 q 1383 208 1383 165 l 1383 292 z "},"‹":{"ha":392,"x_min":83,"x_max":292,"o":"m 292 481 l 194 417 l 292 353 l 292 229 l 83 365 l 83 469 l 292 604 l 292 481 z "},"›":{"ha":392,"x_min":100,"x_max":308,"o":"m 308 469 l 308 365 l 100 229 l 100 353 l 197 417 l 100 481 l 100 604 l 308 469 z "},"⁄":{"ha":775,"x_min":33,"x_max":742,"o":"m 742 1000 l 108 0 l 33 0 l 667 1000 l 742 1000 z "},"€":{"ha":783,"x_min":50,"x_max":717,"o":"m 592 708 l 592 792 q 567 851 592 826 q 508 875 543 875 l 383 875 q 324 851 349 875 q 300 792 300 826 l 300 657 l 508 657 l 508 553 l 300 553 l 300 449 l 508 449 l 508 344 l 300 344 l 300 208 q 324 149 300 174 q 383 125 349 125 l 508 125 q 567 149 543 125 q 592 208 592 174 l 592 292 l 717 292 l 717 208 q 700 127 717 165 q 656 61 683 89 q 590 17 628 33 q 508 0 551 0 l 383 0 q 302 17 340 0 q 236 61 264 33 q 192 127 208 89 q 175 208 175 165 l 175 344 l 50 344 l 50 449 l 175 449 l 175 553 l 50 553 l 50 657 l 175 657 l 175 792 q 192 873 175 835 q 236 939 208 911 q 302 983 264 967 q 383 1000 340 1000 l 508 1000 q 590 983 551 1000 q 656 939 628 967 q 700 873 683 911 q 717 792 717 835 l 717 708 l 592 708 z "},"ℓ":{"ha":700,"x_min":50,"x_max":633,"o":"m 508 250 l 633 250 l 633 208 q 617 127 633 165 q 572 61 600 89 q 506 17 544 33 q 425 0 468 0 l 383 0 q 302 17 340 0 q 236 61 264 33 q 192 127 208 89 q 175 208 175 165 l 175 375 l 50 375 l 50 500 l 175 500 l 175 792 q 192 873 175 835 q 236 939 208 911 q 302 983 264 967 q 383 1000 340 1000 l 425 1000 q 506 983 468 1000 q 572 939 544 967 q 617 873 600 911 q 633 792 633 835 q 608 649 633 717 q 538 526 583 581 q 432 435 493 472 q 300 383 371 399 l 300 208 q 324 149 300 174 q 383 125 349 125 l 425 125 q 484 149 460 125 q 508 208 508 174 l 508 250 m 300 513 q 384 553 346 526 q 450 616 422 579 q 493 697 478 653 q 508 792 508 742 q 484 851 508 826 q 425 875 460 875 l 383 875 q 324 851 349 875 q 300 792 300 826 l 300 513 z "},"™":{"ha":778,"x_min":50,"x_max":728,"o":"m 50 1000 l 321 1000 l 321 938 l 217 938 l 217 500 l 154 500 l 154 938 l 50 938 l 50 1000 m 728 1000 l 728 500 l 665 500 l 665 876 l 582 733 l 519 733 l 436 876 l 436 500 l 374 500 l 374 1000 l 436 1000 l 550 804 l 665 1000 l 728 1000 z "},"Ω":{"ha":708,"x_min":83,"x_max":625,"o":"m 625 271 q 602 176 625 219 q 542 104 579 132 l 625 104 l 625 0 l 407 0 l 407 188 l 417 188 q 476 212 451 188 q 500 271 500 236 l 500 792 q 476 851 500 826 q 417 875 451 875 l 292 875 q 233 851 257 875 q 208 792 208 826 l 208 271 q 233 212 208 236 q 292 188 257 188 l 303 188 l 303 0 l 83 0 l 83 104 l 167 104 q 106 176 129 132 q 83 271 83 219 l 83 792 q 100 873 83 835 q 144 939 117 911 q 210 983 172 967 q 292 1000 249 1000 l 417 1000 q 498 983 460 1000 q 564 939 536 967 q 608 873 592 911 q 625 792 625 835 l 625 271 z "},"℮":{"ha":850,"x_min":50,"x_max":800,"o":"m 217 115 q 313 61 260 81 q 425 42 365 42 q 538 61 485 42 q 633 115 590 81 l 633 64 q 536 17 589 33 q 425 0 483 0 q 279 29 347 0 q 160 110 211 58 q 79 229 108 161 q 50 375 50 297 q 79 521 50 453 q 160 640 108 589 q 279 721 211 692 q 425 750 347 750 q 571 721 503 750 q 690 640 639 692 q 771 521 742 589 q 800 375 800 453 l 217 375 l 217 115 m 217 417 l 633 417 l 633 635 q 538 689 590 669 q 425 708 485 708 q 313 689 365 708 q 217 635 260 669 l 217 417 z "},"∂":{"ha":650,"x_min":67,"x_max":567,"o":"m 358 1000 q 440 983 401 1000 q 506 939 478 967 q 550 873 533 911 q 567 792 567 835 l 567 208 q 550 127 567 165 q 506 61 533 89 q 440 17 478 33 q 358 0 401 0 l 275 0 q 194 17 232 0 q 128 61 156 33 q 83 127 100 89 q 67 208 67 165 l 67 354 q 83 435 67 397 q 128 501 100 474 q 194 546 156 529 q 275 563 232 563 l 442 563 l 442 792 q 417 851 442 826 q 358 875 393 875 l 192 875 l 192 1000 l 358 1000 m 442 438 l 275 438 q 216 413 240 438 q 192 354 192 389 l 192 208 q 216 149 192 174 q 275 125 240 125 l 358 125 q 417 149 393 125 q 442 208 442 174 l 442 438 z "},"∆":{"ha":808,"x_min":50,"x_max":758,"o":"m 758 0 l 50 0 l 342 1000 l 467 1000 l 758 0 m 217 125 l 592 125 l 404 768 l 217 125 z "},"∏":{"ha":742,"x_min":100,"x_max":642,"o":"m 642 1000 l 642 0 l 517 0 l 517 875 l 225 875 l 225 0 l 100 0 l 100 1000 l 642 1000 z "},"∑":{"ha":725,"x_min":50,"x_max":675,"o":"m 675 875 l 213 875 l 525 500 l 213 125 l 675 125 l 675 0 l 50 0 l 50 125 l 363 500 l 50 875 l 50 1000 l 675 1000 l 675 875 z "},"−":{"ha":867,"x_min":100,"x_max":767,"o":"m 100 365 l 100 469 l 767 469 l 767 365 l 100 365 z "},"√":{"ha":808,"x_min":50,"x_max":758,"o":"m 758 1000 l 467 0 l 342 0 l 232 375 l 50 375 l 50 500 l 326 500 l 404 232 l 628 1000 l 758 1000 z "},"∞":{"ha":792,"x_min":83,"x_max":708,"o":"m 578 586 q 670 548 632 586 q 708 456 708 510 l 708 378 q 670 285 708 324 q 578 247 632 247 l 500 247 q 441 262 468 247 q 396 300 414 276 q 351 262 378 276 q 292 247 324 247 l 214 247 q 122 285 160 247 q 83 378 83 324 l 83 456 q 122 548 83 510 q 214 586 160 586 l 292 586 q 351 572 324 586 q 396 533 378 557 q 441 572 414 557 q 500 586 468 586 l 578 586 m 357 456 q 342 493 357 478 q 304 508 326 508 l 214 508 q 176 493 192 508 q 161 456 161 478 l 161 378 q 176 340 161 356 q 214 325 192 325 l 304 325 q 342 340 326 325 q 357 378 357 356 l 357 456 m 631 456 q 615 493 631 478 q 578 508 600 508 l 488 508 q 450 493 465 508 q 435 456 435 478 l 435 378 q 450 340 435 356 q 488 325 465 325 l 578 325 q 615 340 600 325 q 631 378 631 356 l 631 456 z "},"∫":{"ha":588,"x_min":33,"x_max":554,"o":"m 554 1000 l 554 875 l 440 875 q 381 851 404 875 q 357 792 357 826 l 357 208 q 340 127 357 165 q 295 61 324 89 q 229 17 267 33 q 149 0 192 0 l 33 0 l 33 125 l 149 125 q 208 149 183 125 q 232 208 232 174 l 232 792 q 249 873 232 835 q 293 939 265 911 q 359 983 321 967 q 440 1000 397 1000 l 554 1000 z "},"≈":{"ha":804,"x_min":100,"x_max":704,"o":"m 704 653 l 704 629 q 649 493 704 549 q 586 451 621 465 q 514 438 551 438 q 378 493 433 438 l 376 496 l 351 525 q 292 549 325 549 q 229 524 254 549 q 204 463 204 496 l 204 438 l 100 438 l 100 463 q 114 535 100 500 q 156 597 128 569 q 292 653 211 653 q 364 639 329 653 q 426 597 399 625 l 429 594 l 453 567 q 514 542 478 542 q 575 567 547 542 q 600 629 600 592 l 600 653 l 704 653 m 600 396 l 704 396 l 704 372 q 649 236 704 292 q 586 194 621 208 q 514 181 551 181 q 378 236 433 181 l 376 239 l 351 268 q 292 292 325 292 q 229 267 254 292 q 204 206 204 239 l 204 181 l 100 181 l 100 206 q 114 278 100 243 q 156 340 128 313 q 292 396 211 396 q 364 382 329 396 q 426 340 399 368 l 429 338 l 453 310 q 514 285 478 285 q 575 310 547 285 q 600 372 600 335 l 600 396 z "},"≠":{"ha":867,"x_min":100,"x_max":767,"o":"m 542 500 l 446 333 l 767 333 l 767 229 l 385 229 l 301 83 l 211 136 l 265 229 l 100 229 l 100 333 l 325 333 l 421 500 l 100 500 l 100 604 l 482 604 l 565 750 l 656 699 l 601 604 l 767 604 l 767 500 l 542 500 z "},"≤":{"ha":683,"x_min":83,"x_max":583,"o":"m 583 697 l 215 521 l 583 344 l 583 229 l 83 469 l 83 574 l 583 813 l 583 697 m 83 83 l 83 188 l 583 188 l 583 83 l 83 83 z "},"≥":{"ha":683,"x_min":100,"x_max":600,"o":"m 600 574 l 600 469 l 100 229 l 100 344 l 468 521 l 100 697 l 100 813 l 600 574 m 100 83 l 100 188 l 600 188 l 600 83 l 100 83 z "},"◊":{"ha":683,"x_min":50,"x_max":633,"o":"m 633 500 l 394 0 l 290 0 l 50 500 l 290 1000 l 394 1000 l 633 500 m 518 500 l 342 868 l 165 500 l 342 132 l 518 500 z "},"ﬁ":{"ha":838,"x_min":50,"x_max":738,"o":"m 311 750 l 738 750 l 738 0 l 613 0 l 613 625 l 311 625 l 311 0 l 186 0 l 186 625 l 50 625 l 50 750 l 186 750 l 186 792 q 203 873 186 835 q 247 939 219 911 q 313 983 275 967 q 394 1000 351 1000 l 508 1000 l 508 875 l 394 875 q 335 851 358 875 q 311 792 311 826 l 311 750 m 613 854 l 613 1000 l 738 1000 l 738 854 l 613 854 z "},"ﬂ":{"ha":838,"x_min":50,"x_max":738,"o":"m 738 1000 l 738 0 l 613 0 l 613 875 l 394 875 q 335 851 358 875 q 311 792 311 826 l 311 750 l 508 750 l 508 625 l 311 625 l 311 0 l 186 0 l 186 625 l 50 625 l 50 750 l 186 750 l 186 792 q 203 873 186 835 q 247 939 219 911 q 313 983 275 967 q 394 1000 351 1000 l 738 1000 z "}}}
